<svg width="94" height="188" viewBox="0 0 94 188" fill="none" xmlns="http://www.w3.org/2000/svg">
    <g clip-path="url(#clip0)">
        <rect width="94" height="188" fill="#CDF8E4"/>
        <path d="M12.7369 191.99C14.1328 183.121 15.8389 174.257 18.3393 165.548C19.5895 161.201 21.023 156.891 22.6492 152.661C24.2754 148.431 26.0614 144.276 27.932 140.173C31.692 131.981 35.6964 123.972 39.5927 115.935C41.5479 111.916 43.4796 107.898 45.3925 103.865C47.3007 99.842 49.2089 95.7718 51.0278 91.7721C54.5528 83.8197 57.26 75.4631 59.2434 66.9749C61.2127 58.482 62.4535 49.8199 62.7872 41.1813C62.9564 36.8667 62.8765 32.5568 62.5146 28.3127C62.148 24.0686 61.49 19.8762 60.4466 15.8624C59.3985 11.8486 57.9415 8.0134 55.9957 4.6012C55.0181 2.9045 53.9089 1.3206 52.6869 -0.112901C51.4602 -1.5417 50.1019 -2.7966 48.6402 -3.8823L54.9194 -12.0979C57.0062 -10.4529 58.8815 -8.587 60.5124 -6.5707C62.1433 -4.5544 63.5016 -2.3783 64.6719 -0.155201C66.9843 4.3098 68.5118 8.9816 69.5411 13.6628C70.0534 16.0034 70.4435 18.3534 70.7302 20.6987C71.0075 23.044 71.1579 25.394 71.2425 27.7299C71.4023 32.4017 71.2378 37.0453 70.8242 41.6372C69.9876 50.8257 68.2298 59.8403 65.7247 68.6105C65.1043 70.8054 64.4134 72.9768 63.7037 75.1388C63.0175 77.3102 62.2467 79.4534 61.4947 81.6013C59.9672 85.8924 58.2611 90.113 56.32 94.2537C54.3413 98.3286 52.3203 102.305 50.2852 106.304C48.2501 110.295 46.1915 114.28 44.1188 118.247C39.9828 126.19 35.7528 134.072 31.8189 142.043C29.859 146.034 27.9931 150.057 26.287 154.136C24.5856 158.221 23.0675 162.376 21.7233 166.591C19.0349 175.023 17.0985 183.718 15.4629 192.474L12.7369 191.99Z" fill="url(#paint0_linear)"/>
        <path d="M18.5273 191.708C20.0548 182.661 22.0382 173.646 24.8253 164.829C27.603 156.012 31.2267 147.467 35.1982 139.171C39.1697 130.867 43.4044 122.745 47.5921 114.619L53.8666 102.436L56.9781 96.3404C57.9697 94.3382 59.0836 92.3172 59.8873 90.362C63.4311 82.1746 66.2276 73.63 68.3708 64.9444C70.5047 56.2588 71.9898 47.4181 72.629 38.5727C72.9486 34.1547 73.0568 29.7367 72.8735 25.3657C72.6902 20.9994 72.2295 16.6707 71.3694 12.5018C70.514 8.33759 69.2356 4.33319 67.4214 0.77529C66.519 -1.00601 65.4568 -2.64161 64.2724 -4.12211C63.088 -5.60261 61.7438 -6.87161 60.2962 -7.95261L66.5754 -16.1682C68.7139 -14.4198 70.6081 -12.4176 72.1779 -10.2603C73.7477 -8.10301 75.0589 -5.81881 76.1117 -3.48291C78.2267 1.19829 79.4628 6.03459 80.2524 10.8239C81.028 15.6273 81.3241 20.4166 81.3194 25.1589C81.3147 29.9059 80.995 34.6106 80.4545 39.2683C79.3735 48.5884 77.4277 57.7252 74.8239 66.6458C74.1706 68.8736 73.4798 71.092 72.7419 73.2963C72.0181 75.5006 71.2519 77.6955 70.4576 79.8716C68.8925 84.2426 67.1676 88.5572 65.2219 92.7872L64.4651 94.4087L64.2724 94.8176L64.0656 95.1983L63.6473 95.9597L61.9788 99.0053L58.6559 105.017L51.9772 117.002C47.5263 124.987 43.0425 132.939 38.8548 141.009C34.6624 149.074 30.8507 157.309 27.8521 165.853C24.8394 174.393 22.5928 183.21 20.7833 192.136L18.5273 191.708Z" fill="url(#paint1_linear)"/>
        <path d="M23.8712 191.356C25.4833 182.2 27.744 173.11 30.9917 164.34C34.1689 155.542 38.3801 147.138 42.9109 139.035C47.4417 130.923 52.1417 122.985 56.4892 114.877C58.67 110.831 60.7756 106.746 62.7966 102.624C63.8118 100.566 64.7941 98.4931 65.7717 96.4157C66.7211 94.3289 67.7222 92.2421 68.5729 90.1506C69.0053 89.1025 69.4283 88.0497 69.8372 86.9922C70.2367 85.93 70.5986 84.8537 70.9652 83.7774C71.6843 81.6248 72.3705 79.4581 73.0097 77.282C74.3022 72.9298 75.6699 68.6058 76.812 64.216C79.115 55.4411 80.8352 46.5064 81.8504 37.5388C82.8374 28.5853 83.2416 19.5425 82.2123 10.8334C81.6812 6.49998 80.8211 2.25118 79.35 -1.60282C77.8695 -5.42392 75.7357 -8.81732 72.8828 -10.9088L77.8789 -17.6909C79.0069 -16.8167 80.0503 -15.8579 80.995 -14.8333C81.9162 -13.7946 82.7716 -12.7136 83.5048 -11.5856C84.99 -9.33432 86.1039 -6.95612 87.0016 -4.56382C88.75 0.234882 89.643 5.10878 90.1177 9.92628C91.0342 19.5801 90.395 29.0835 89.126 38.4271C87.8147 47.766 85.7843 56.9498 83.157 65.955C82.499 68.2063 81.8034 70.4435 81.0702 72.6713C80.3182 74.8897 79.5051 77.094 78.6638 79.2795C77.8178 81.465 76.9389 83.6411 75.9989 85.789C75.5336 86.8653 75.0448 87.9322 74.5654 89.0038C74.086 90.0754 73.5972 91.1423 73.0896 92.1998C69.0711 100.622 64.7612 108.852 60.1411 116.917C55.5398 124.987 50.6095 132.841 45.9142 140.765C41.2189 148.684 36.8949 156.783 33.5626 165.318C30.2491 173.858 27.885 182.75 26.1507 191.779L23.8712 191.356Z" fill="url(#paint2_linear)"/>
        <path d="M28.8345 192.714C30.5641 183.328 33.0739 174.041 36.7023 165.167C38.5212 160.735 40.5516 156.397 42.7888 152.172C45.0166 147.942 47.4371 143.829 49.8952 139.759L57.3165 127.619C59.7652 123.572 62.1669 119.502 64.4746 115.385C66.8058 111.282 68.9443 107.075 71.017 102.841C71.5434 101.788 72.0416 100.716 72.5492 99.654C73.0568 98.5918 73.5597 97.5248 74.0438 96.4533C75.0402 94.3148 75.9755 92.1716 76.8168 89.9767C77.6675 87.7865 78.4101 85.5539 79.1527 83.3261L80.2431 79.9798C80.605 78.8611 80.934 77.7378 81.31 76.6286C82.7623 72.1777 84.3274 67.7691 85.6528 63.2806C88.3412 54.3224 90.475 45.195 91.8615 35.983C93.2339 26.7898 94.0188 17.4603 93.1822 8.34234C92.731 3.80684 91.9743 -0.700459 90.4233 -4.85056C88.8911 -8.98656 86.574 -12.7795 83.2464 -15.3598L85.8784 -18.96C86.9453 -18.1798 87.9417 -17.315 88.8676 -16.3797C89.7747 -15.4303 90.6066 -14.4292 91.3633 -13.3764C92.8532 -11.2614 94.0517 -8.98656 94.987 -6.64596C95.9317 -4.30536 96.6555 -1.90836 97.2007 0.507442C97.7553 2.92324 98.1407 5.35784 98.4039 7.79714C98.935 12.671 99.0102 17.5449 98.8175 22.3859C98.6107 27.2269 98.1548 32.0397 97.4592 36.8055C96.0539 46.3418 93.8919 55.723 91.1612 64.921C89.7935 69.5222 88.3083 74.0859 86.5599 78.5556C85.6951 80.7928 84.7222 82.9878 83.754 85.1827C82.7858 87.3776 81.733 89.5302 80.7601 91.7203C78.7156 96.0631 76.7087 100.392 74.5608 104.659C72.4552 108.946 70.2791 113.204 67.9761 117.392C65.7107 121.598 63.2479 125.692 60.771 129.757C59.5443 131.797 58.233 133.781 56.964 135.783C55.6809 137.776 54.426 139.783 53.1288 141.757C50.5673 145.723 48.0434 149.69 45.7169 153.756C43.3998 157.826 41.219 161.971 39.3672 166.272C35.6448 174.859 32.994 183.911 31.0999 193.142L28.8345 192.714Z" fill="url(#paint3_linear)"/>
        <path d="M34.7565 194.288C36.5613 184.921 39.2121 175.658 43.0473 166.869C44.9367 162.465 47.0987 158.183 49.4299 154.014C51.7611 149.84 54.2756 145.789 56.7995 141.771C59.3281 137.752 61.8802 133.766 64.3524 129.743C66.8246 125.72 69.2216 121.664 71.5058 117.547C73.79 113.43 75.9614 109.256 78.0012 105.017C78.5276 103.964 79.0117 102.892 79.5099 101.83C80.0128 100.768 80.5063 99.7009 80.9857 98.6105L83.8903 92.1245C84.8538 89.9766 85.7092 87.7817 86.5693 85.5915L89.112 79.0021C90.8181 74.617 92.5618 70.246 94.1974 65.8327C97.4686 57.0108 100.42 48.0667 102.897 39.0192C105.369 29.9811 107.494 20.8161 108.471 11.6135C108.927 7.02156 109.167 2.40616 108.678 -2.03534C108.434 -4.24904 107.992 -6.41104 107.249 -8.37094C106.507 -10.3308 105.43 -12.0557 103.978 -13.2542L106.775 -16.7275C107.898 -15.8392 108.852 -14.777 109.637 -13.6443C110.417 -12.5069 111.042 -11.299 111.54 -10.077C112.537 -7.62364 113.082 -5.10914 113.42 -2.62754C114.064 2.35446 113.942 7.26596 113.491 12.1023C113.04 16.9386 112.274 21.7044 111.338 26.4185C110.394 31.1326 109.298 35.7997 108.034 40.4198C105.52 49.66 102.535 58.7404 99.2311 67.6986C97.5767 72.1777 95.8612 76.6333 93.9436 81.0043C92.026 85.38 89.8828 89.6523 87.7678 93.934L86.1651 97.13C85.6387 98.1499 85.1499 99.2638 84.6423 100.326C84.1488 101.398 83.6271 102.474 83.096 103.545C82.5649 104.617 82.0526 105.693 81.5027 106.756C79.3548 111.023 77.0706 115.22 74.6783 119.347C72.286 123.478 69.7856 127.539 67.2147 131.543C64.6485 135.552 62.0165 139.5 59.4221 143.458C56.8324 147.415 54.2756 151.377 51.9068 155.438C49.538 159.494 47.3478 163.644 45.4161 167.917C41.5809 176.475 38.9019 185.523 37.0313 194.744L34.7565 194.288Z" fill="url(#paint4_linear)"/>
        <path d="M40.3119 194.002C41.3459 189.316 42.6384 184.682 44.2458 180.151C45.8438 175.62 47.7473 171.193 49.8858 166.892C54.1111 158.254 59.3375 150.207 64.5028 142.231C69.6963 134.265 74.8146 126.298 79.43 118.054C81.7471 113.937 83.9326 109.754 86.0053 105.515L86.7855 103.926L87.5375 102.324C88.031 101.252 88.5527 100.199 89.0274 99.1087L91.9414 92.6039C92.4067 91.5229 92.8908 90.4466 93.3232 89.3515L94.6063 86.0568C95.4523 83.8572 96.256 81.6388 97.0691 79.4251C97.9198 77.2255 98.7047 75.0024 99.5319 72.7981C100.359 70.5891 101.158 68.3754 101.934 66.1476C105.036 57.2458 107.766 48.2077 109.994 39.0662C112.212 29.9341 114.055 20.6845 114.727 11.4255C115.037 6.80544 115.117 2.17124 114.497 -2.27496C114.182 -4.48866 113.684 -6.65066 112.889 -8.61526C112.1 -10.5752 110.99 -12.3095 109.524 -13.5221L112.321 -16.9954C113.439 -16.1071 114.398 -15.0543 115.192 -13.9357C115.982 -12.8077 116.626 -11.6186 117.147 -10.406C118.191 -7.97606 118.807 -5.48036 119.22 -3.00346C120.019 1.96444 120.057 6.89474 119.765 11.7545C119.474 16.619 118.858 21.4224 118.069 26.1788C117.27 30.9352 116.311 35.654 115.173 40.3211C112.913 49.66 110.149 58.8532 107.01 67.9101C106.225 70.1755 105.412 72.4315 104.575 74.6781C103.743 76.9247 102.822 79.1431 101.905 81.3568C100.956 83.5611 99.9549 85.7419 98.9303 87.9133C97.8963 90.08 96.8388 92.2326 95.7907 94.3946L94.1927 97.5859L92.6746 100.815C92.1811 101.891 91.6265 102.967 91.1048 104.044L90.3105 105.656L89.488 107.254C87.3025 111.521 85.0042 115.728 82.5837 119.855C77.7521 128.122 72.4317 136.074 67.0972 143.937C61.7862 151.815 56.4846 159.664 52.1935 168.044C50.055 172.236 48.1609 176.546 46.5535 180.964C44.9414 185.382 43.6301 189.908 42.5726 194.5L40.3119 194.002Z" fill="url(#paint5_linear)"/>
        <path d="M45.9473 194.904C46.9813 190.195 48.3161 185.542 49.9846 181.006C51.6437 176.471 53.6318 172.053 55.8643 167.781C60.2823 159.189 65.7296 151.241 71.0923 143.35C76.4832 135.468 81.7895 127.586 86.5318 119.375C88.9053 115.277 91.1519 111.103 93.2622 106.869C94.3338 104.758 95.3255 102.615 96.3313 100.467L99.2641 93.9388C99.7388 92.8578 100.213 91.7721 100.665 90.6817L101.962 87.3729C102.808 85.1592 103.635 82.9455 104.434 80.713C105.289 78.504 106.088 76.2809 106.911 74.0625C107.743 71.8488 108.551 69.621 109.331 67.3885C112.457 58.4538 115.206 49.3781 117.453 40.2037C119.686 31.0387 121.547 21.7515 122.233 12.4502C122.548 7.8113 122.637 3.1536 122.017 -1.3114C121.707 -3.5345 121.204 -5.7106 120.409 -7.6799C119.62 -9.6492 118.506 -11.3929 117.035 -12.6102L119.831 -16.0835C120.955 -15.1905 121.913 -14.133 122.712 -13.0097C123.502 -11.877 124.146 -10.6832 124.668 -9.4659C125.711 -7.0266 126.327 -4.5215 126.736 -2.0305C127.53 2.9562 127.558 7.9053 127.262 12.7839C126.961 17.6672 126.341 22.4894 125.542 27.2646C124.733 32.0398 123.77 36.7774 122.623 41.4633C120.344 50.8398 117.561 60.0659 114.398 69.1604C113.604 71.4352 112.791 73.6959 111.945 75.9519C111.094 78.2032 110.173 80.431 109.252 82.6541C108.279 84.8584 107.282 87.0533 106.244 89.2294L103.085 95.7342L102.277 97.351C102.009 97.8868 101.741 98.3803 101.492 98.9349L99.9644 102.178C98.9069 104.335 97.8494 106.507 96.7214 108.631C94.4936 112.903 92.1342 117.1 89.6479 121.218C84.68 129.461 79.1716 137.339 73.6397 145.117C68.1313 152.905 62.6182 160.655 58.1438 168.984C55.916 173.148 53.942 177.439 52.2782 181.852C50.6097 186.266 49.2655 190.801 48.208 195.407L45.9473 194.904Z" fill="url(#paint6_linear)"/>
        <path d="M52.8562 192.014C54.2004 187.347 55.8689 182.769 57.857 178.332C59.8404 173.895 62.1293 169.599 64.6297 165.445C69.5976 157.107 75.3645 149.352 80.9152 141.536C86.4894 133.729 91.8474 125.814 96.5756 117.538C98.9444 113.402 101.168 109.19 103.245 104.904C103.753 103.828 104.288 102.765 104.777 101.68L106.253 98.4274L107.677 95.1139C108.128 94.0235 108.678 92.8532 109.148 91.791C109.632 90.7053 110.107 89.6102 110.572 88.5151C111.038 87.42 111.461 86.3061 111.893 85.1969C112.748 82.9738 113.585 80.7413 114.393 78.4994C115.23 76.2669 116.071 74.0391 116.88 71.8019C117.721 69.5741 118.539 67.3369 119.328 65.0903C122.487 56.1039 125.269 46.9718 127.544 37.741C129.8 28.5149 131.689 19.1713 132.399 9.80886C132.723 5.14176 132.822 0.451159 132.211 -4.04674C131.901 -6.28864 131.403 -8.47884 130.608 -10.4669C129.819 -12.4503 128.7 -14.2128 127.22 -15.4395L130.016 -18.9128C131.149 -18.0151 132.112 -16.9482 132.911 -15.8155C133.706 -14.6781 134.354 -13.4702 134.871 -12.2482C135.915 -9.79484 136.53 -7.27094 136.935 -4.76584C137.724 0.253759 137.743 5.23576 137.433 10.1426C137.123 15.0541 136.493 19.9092 135.68 24.7126C134.862 29.516 133.88 34.2818 132.719 38.9959C130.411 48.4288 127.596 57.7113 124.395 66.8575C123.596 69.1464 122.769 71.4212 121.913 73.6913C121.03 75.9473 120.127 78.1986 119.169 80.4264C118.182 82.6401 117.176 84.8491 116.123 87.0346L114.53 90.3058C114.003 91.4009 113.472 92.4913 112.932 93.577C112.377 94.6862 111.855 95.6638 111.376 96.7918L109.891 100.072L108.326 103.358C107.809 104.453 107.245 105.529 106.704 106.615C104.509 110.939 102.169 115.192 99.6823 119.352C94.7238 127.685 89.1449 135.609 83.4109 143.341C77.6957 151.086 71.8442 158.677 66.8246 166.775C64.3336 170.831 62.0588 175.009 60.0801 179.328C58.1014 183.643 56.4282 188.099 55.0746 192.653L52.8562 192.014Z" fill="url(#paint7_linear)"/>
        <path d="M59.1166 191.215C62.51 182.069 67.1395 173.406 72.4458 165.271C77.7098 157.093 83.5613 149.375 89.159 141.54C94.7755 133.72 100.133 125.748 104.871 117.425C107.245 113.27 109.482 109.031 111.573 104.73L113.12 101.492L114.6 98.2205C115.098 97.1395 115.559 96.0068 116.038 94.9023L116.753 93.2338L117.509 91.5512C119.502 87.2037 121.171 82.7058 122.816 78.2126C123.638 75.966 124.508 73.7382 125.307 71.4822C126.153 69.245 126.975 66.9984 127.774 64.7424C130.961 55.7137 133.767 46.5487 136.06 37.2756C138.335 28.0119 140.243 18.626 140.972 9.22134C141.305 4.53074 141.409 -0.178659 140.798 -4.70006C140.492 -6.95136 139.994 -9.15566 139.2 -11.1532C138.406 -13.1507 137.287 -14.9179 135.797 -16.1493L138.594 -19.6226C139.731 -18.7202 140.699 -17.6486 141.503 -16.5112C142.297 -15.3644 142.946 -14.1565 143.467 -12.9251C144.511 -10.4576 145.122 -7.92426 145.526 -5.40506C146.311 -0.361959 146.32 4.63884 146.005 9.56914C145.686 14.5041 145.047 19.378 144.224 24.2049C143.397 29.0318 142.405 33.8164 141.23 38.5493C138.899 48.0245 136.065 57.3446 132.841 66.5284C132.032 68.822 131.2 71.1109 130.336 73.3857C129.433 75.6464 128.545 77.9118 127.558 80.1396C125.589 84.5952 123.427 88.9662 121.274 93.3419L120.475 94.9258L119.732 96.5755C119.23 97.6753 118.764 98.7704 118.233 99.8749L116.668 103.174L115.037 106.446C112.828 110.788 110.478 115.056 107.987 119.239C103.019 127.614 97.4404 135.595 91.6547 143.355C85.8878 151.128 79.9235 158.7 74.5984 166.676C69.2921 174.657 64.6955 183.088 61.2833 192.028L59.1166 191.215Z" fill="url(#paint8_linear)"/>
        <path d="M66.3734 189.673C70.0253 180.644 74.9885 172.198 80.558 164.288C86.0899 156.331 92.1529 148.825 97.9057 141.15C103.677 133.489 109.134 125.631 113.895 117.368C116.278 113.242 118.525 109.035 120.56 104.73C122.604 100.429 124.48 96.0491 126.214 91.6123L126.223 91.5841L126.275 91.476C127.276 89.267 128.272 87.0533 129.17 84.802C130.063 82.546 130.923 80.2712 131.765 77.9917C133.433 73.428 135.163 68.8972 136.808 64.3241C140.074 55.1779 142.951 45.886 145.31 36.486C147.641 27.0907 149.62 17.5732 150.391 8.03216C150.583 5.64926 150.677 3.26636 150.687 0.902258C150.691 -1.46184 150.574 -3.81184 150.278 -6.10544C149.972 -8.39434 149.488 -10.6315 148.685 -12.6666C147.89 -14.697 146.758 -16.5018 145.249 -17.752L148.045 -21.2253C149.201 -20.3135 150.179 -19.2231 150.988 -18.0622C151.796 -16.9013 152.44 -15.6652 152.966 -14.4197C154.014 -11.9146 154.616 -9.34374 155.015 -6.78694C155.786 -1.67334 155.772 3.39796 155.429 8.39876C155.086 13.3996 154.419 18.3393 153.568 23.232C152.717 28.1247 151.683 32.9751 150.48 37.7738C148.088 47.3759 145.174 56.8229 141.87 66.1289C140.215 70.7819 138.448 75.3973 136.403 79.8999C135.388 82.1512 134.331 84.3884 133.24 86.6115C132.159 88.8346 131.092 91.0671 129.955 93.2667L130.021 93.121C128.174 97.6189 126.176 102.06 124.014 106.413C121.857 110.774 119.488 115.028 116.988 119.192C111.982 127.525 106.295 135.412 100.35 143.016C94.423 150.64 88.2425 158.009 82.6589 165.769C77.0894 173.533 72.1685 181.749 68.5166 190.552L66.3734 189.673Z" fill="url(#paint9_linear)"/>
        <path d="M73.9263 188.442C75.0496 186.313 76.1541 184.17 77.3009 182.055C78.5511 180.001 79.7026 177.881 80.981 175.841L82.9409 172.81C83.5942 171.799 84.2381 170.784 84.9431 169.811C86.3343 167.856 87.6738 165.854 89.1308 163.95C94.846 156.237 100.834 148.779 106.347 141.038C107.785 139.144 108.979 137.085 110.229 135.069L112.104 132.056C112.748 131.069 113.42 130.101 114.092 129.133C116.729 125.232 119.248 121.255 121.561 117.162C126.247 109.012 130.26 100.491 133.889 91.7676L138.067 93.3233C134.876 102.441 130.937 111.334 126.195 119.794C123.826 124.024 121.241 128.131 118.548 132.15C117.18 134.143 115.817 136.15 114.205 137.954C113.425 138.88 112.617 139.778 111.851 140.709L110.699 142.105C110.304 142.556 109.924 143.021 109.543 143.486C103.442 150.917 97.1161 158.066 91.2834 165.567C85.4507 173.054 80.0316 180.87 75.8204 189.363L73.9263 188.442Z" fill="url(#paint10_linear)"/>
        <path d="M80.6848 189.039L84.191 182.708C85.4788 180.668 86.6632 178.572 87.9745 176.551L89.9814 173.552C90.6535 172.556 91.3021 171.541 92.0118 170.572C93.4124 168.622 94.7613 166.629 96.2324 164.735L98.3991 161.863L100.585 159.015C102.032 157.107 103.503 155.222 104.937 153.314L107.094 150.452L109.209 147.566C110.633 145.648 111.996 143.703 113.378 141.771C116.165 137.922 118.337 133.659 121.119 129.866C123.756 125.965 126.275 121.989 128.587 117.895C133.273 109.745 137.287 101.224 140.915 92.5007L145.094 94.0564C141.902 103.174 137.964 112.067 133.221 120.527C130.853 124.757 128.268 128.865 125.575 132.883C124.207 134.876 122.839 136.883 121.222 138.683C120.442 139.604 119.638 140.507 118.863 141.432C118.473 141.893 118.097 142.363 117.716 142.828C117.326 143.284 116.95 143.754 116.574 144.22C113.575 147.975 110.464 151.622 107.433 155.302C105.905 157.14 104.392 158.978 102.892 160.825C101.374 162.662 99.9031 164.524 98.432 166.385C92.5664 173.844 87.1708 181.655 82.8421 190.087L80.6848 189.039Z" fill="url(#paint11_linear)"/>
        <path d="M87.9698 188.62C89.2952 186.58 90.5455 184.508 91.8051 182.458C93.1727 180.466 94.437 178.426 95.8047 176.447L97.8774 173.505C98.573 172.527 99.2404 171.531 99.9689 170.577L102.107 167.691L103.174 166.248L104.265 164.824L108.636 159.132C109.369 158.188 110.079 157.224 110.784 156.261C111.507 155.311 112.189 154.324 112.889 153.356C114.271 151.401 115.606 149.417 116.941 147.434L120.931 141.498C123.605 137.559 125.885 133.386 128.644 129.569C131.28 125.668 133.8 121.692 136.112 117.598C140.798 109.449 144.812 100.928 148.44 92.2043L152.618 93.7601C149.427 102.878 145.488 111.77 140.746 120.23C138.377 124.46 135.792 128.568 133.099 132.587C131.732 134.58 130.364 136.582 128.742 138.382C127.962 139.303 127.154 140.205 126.383 141.131C125.993 141.592 125.617 142.062 125.241 142.532C124.851 142.993 124.479 143.463 124.108 143.933L115.117 155.142L106.084 166.196C104.561 168.025 103.165 169.933 101.713 171.804C100.975 172.734 100.303 173.707 99.6117 174.666L97.5344 177.547C96.1761 179.488 94.9446 181.509 93.6098 183.474C92.3784 185.499 91.1846 187.553 89.9673 189.598L87.9698 188.62Z" fill="url(#paint12_linear)"/>
        <path d="M9.13208 188.898C10.3682 179.549 12.0367 170.229 14.4243 161.055C16.7884 151.88 19.8481 142.856 23.5611 134.114C25.4129 129.743 27.4057 125.438 29.469 121.194C31.5323 116.95 33.6661 112.753 35.7341 108.565C37.8068 104.378 39.8184 100.199 41.642 95.9692L41.9851 95.1749L42.3047 94.4088L42.9392 92.886C43.1272 92.369 43.287 91.8426 43.4609 91.3256L43.9967 89.69C44.7111 87.481 45.3973 85.2673 46.06 83.0489C48.6826 74.1706 50.8775 65.1795 52.2499 56.1367C52.9361 51.62 53.4061 47.0892 53.5612 42.5866C53.7116 38.0887 53.5424 33.6143 52.9079 29.2856C52.2734 24.9616 51.1736 20.7833 49.4393 17.0139C47.7238 13.2351 45.2704 9.96392 42.2906 7.36482C40.796 6.06762 39.1651 4.92552 37.4026 3.97612C35.6401 3.02672 33.7695 2.25122 31.8237 1.62612C27.9368 0.33832 23.7115 -0.19748 19.4439 -0.39488L20.5202 -12.4363C23.0535 -12.1214 25.5962 -11.6937 28.1248 -11.1015C30.6534 -10.5046 33.1726 -9.71968 35.6401 -8.73738C40.561 -6.78688 45.3033 -3.89638 49.1949 -0.0611792C53.0912 3.75522 56.0804 8.41762 57.9839 13.3056C59.9062 18.1983 60.9073 23.2555 61.3538 28.2281C61.805 33.2101 61.6828 38.1357 61.2786 42.9814C60.8744 47.8271 60.1459 52.5976 59.2012 57.2929C58.2659 61.9929 57.1003 66.6224 55.8031 71.1955C55.1921 73.4938 54.5153 75.7686 53.8432 78.0434C53.1852 80.3229 52.4943 82.5883 51.7846 84.8443C51.0702 87.1003 50.3323 89.3516 49.5662 91.5888L48.9834 93.2808C48.7766 93.8589 48.5839 94.4464 48.363 95.0198C47.8601 96.129 47.3572 97.2852 46.8496 98.3427C44.8333 102.653 42.6572 106.859 40.4388 111.009C38.2251 115.164 35.9832 119.277 33.8165 123.408C31.6545 127.544 29.5724 131.703 27.6313 135.929C23.7444 144.37 20.4967 153.088 17.907 162.028C15.2938 170.958 13.3715 180.095 11.8769 189.307L9.13208 188.898Z" fill="url(#paint13_linear)"/>
        <path d="M5.2452 188.836C6.2792 179.465 7.5905 170.102 9.4611 160.81C11.3364 151.528 13.7945 142.302 17.1127 133.344C18.7765 128.874 20.6377 124.465 22.6258 120.16C24.6092 115.845 26.696 111.62 28.67 107.4C30.6487 103.184 32.5005 98.9584 34.1079 94.6626C34.3194 94.1221 34.5121 93.591 34.6954 93.0693L35.2594 91.4948L36.237 88.2142C36.895 85.977 37.5342 83.7351 38.1499 81.4932C39.386 77.0094 40.5234 72.5115 41.4963 68.0042C42.4692 63.4969 43.2917 58.9802 43.8181 54.4776C44.3445 49.975 44.5889 45.4818 44.3351 41.1014C44.0625 36.7304 43.2917 32.4722 41.783 28.6182C40.279 24.7642 38.0559 21.3332 35.1325 18.5273L34.5873 18.0009L34.0139 17.498C33.6379 17.1549 33.2431 16.8353 32.8389 16.5204C32.0352 15.8906 31.1845 15.3078 30.315 14.7532C28.5666 13.644 26.7007 12.6758 24.7455 11.8533C20.8351 10.2036 16.6286 9.02388 12.2999 8.20138C7.9759 7.35538 3.5203 6.87128 -0.963501 6.56578L-0.075201 -2.06812C0.516999 -1.99292 1.1139 -1.90362 1.7061 -1.84252C2.303 -1.78142 2.8952 -1.72032 3.4921 -1.64042L7.0641 -1.18452C7.661 -1.11402 8.2579 -1.03412 8.8548 -0.940115L10.6502 -0.695715C11.8487 -0.512415 13.0425 -0.319715 14.241 -0.117615C15.4442 0.0703847 16.6427 0.319485 17.8412 0.559185L19.6507 0.935185L21.4555 1.36288L25.0839 2.30288C26.32 2.58488 27.5561 2.90918 28.8251 3.20998C31.349 3.83978 33.9763 4.55888 36.3686 5.86078C38.775 7.13448 40.8759 8.97688 42.7747 11.0026C44.6594 13.0424 46.3044 15.3407 47.5405 17.8223C48.175 19.0537 48.7296 20.3133 49.1808 21.6058C49.6555 22.8842 50.0268 24.1861 50.3558 25.4833C50.5203 26.1319 50.6425 26.7852 50.7882 27.4291C50.901 28.0824 51.0185 28.7263 51.1172 29.3749C51.1971 30.0235 51.2958 30.6674 51.3569 31.3113C51.4274 31.9505 51.5167 32.5897 51.559 33.2289C51.6107 33.8681 51.6671 34.5026 51.6859 35.1371C51.6953 35.4567 51.7235 35.7716 51.747 36.0865L51.7893 37.0312C51.8551 38.2861 51.841 39.541 51.8457 40.7818C51.8551 42.0226 51.8222 43.2587 51.7611 44.4854C51.7235 45.7121 51.6577 46.9388 51.559 48.1561C51.418 50.5907 51.1783 53.0112 50.8681 55.4082C50.572 57.8052 50.2289 60.1928 49.7824 62.5522C49.3218 64.9116 48.8142 67.2475 48.2596 69.574C47.6627 71.8864 47.0235 74.1847 46.3467 76.4642C45.6511 78.739 44.9226 80.9997 44.18 83.2463L41.9334 89.9814L40.7819 93.3936C40.3307 94.5216 39.8983 95.6919 39.433 96.7776C37.6188 101.205 35.5602 105.51 33.417 109.731C31.2738 113.951 29.0695 118.087 26.9921 122.261C24.9053 126.43 22.9689 130.65 21.2158 134.946C17.719 143.547 15.0353 152.482 12.9015 161.572C10.8006 170.671 9.2778 179.911 8.0041 189.189L5.2452 188.836Z" fill="url(#paint14_linear)"/>
        <path d="M0.822476 189.654C1.66848 180.851 2.68368 172.048 4.02318 163.273C5.38148 154.503 7.05938 145.747 9.44228 137.108C10.6408 132.794 11.9991 128.507 13.5783 124.305C15.1387 120.094 16.8965 115.977 18.6637 111.921C20.4356 107.865 22.1934 103.865 23.7961 99.8278C24.1956 98.8173 24.5857 97.8068 24.9711 96.7916C25.3424 95.7811 25.7372 94.7471 26.0803 93.7648L26.6067 92.2749L27.0579 90.7521L27.9603 87.6313C30.3244 79.2371 32.3548 70.763 33.4875 62.2983C34.0421 58.0683 34.3664 53.843 34.2818 49.6976C34.2066 45.5569 33.652 41.4961 32.5193 37.7502C31.3772 34.0043 29.6053 30.5968 27.1613 27.7627C24.7596 24.8816 21.62 22.6397 18.1373 20.9007C14.6405 19.1758 10.7865 17.9585 6.80088 17.0796C2.81528 16.196 -1.32072 15.6649 -5.49902 15.3312L-4.46502 6.71143C-2.3365e-05 7.33183 4.48848 7.92403 9.00988 8.80763C11.2659 9.26353 13.5407 9.75703 15.8108 10.4056C18.0668 11.0871 20.4168 11.6464 22.8373 12.342C25.2531 13.0329 27.7112 13.9729 29.8497 15.4722C30.9354 16.2007 31.9036 17.0984 32.8436 18.0243C33.2995 18.5037 33.7742 18.9643 34.2066 19.4672L34.8646 20.2145C35.0808 20.4683 35.2735 20.7409 35.4756 20.9994C35.8845 21.5211 36.2652 22.0663 36.6365 22.6162C37.0219 23.1567 37.3603 23.7301 37.694 24.2988C38.3285 25.4597 38.9442 26.6253 39.4283 27.8426C40.4153 30.2631 41.1156 32.7494 41.5574 35.2216C43.2306 45.1339 42.4128 54.4399 40.8007 63.3887C39.9829 67.8631 38.9395 72.2529 37.7081 76.5722C36.4814 80.8868 35.1043 85.1356 33.7178 89.3656L32.6697 92.5522L32.1245 94.169L31.5041 95.767C30.6769 97.8914 29.8215 99.9265 28.9332 101.985C27.1519 106.084 25.2343 110.093 23.3449 114.069C21.4555 118.045 19.6178 122.007 17.9775 126.04C16.3184 130.068 14.8708 134.171 13.5736 138.335C10.9839 146.668 9.06158 155.236 7.44008 163.865C5.87968 172.509 4.64828 181.227 3.57198 189.969L0.822476 189.654Z" fill="url(#paint15_linear)"/>
        <path d="M-1.87059 189.104C-1.37709 181.063 -0.775493 173.021 0.0235076 164.989C0.418307 160.97 0.869507 156.956 1.40531 152.947C1.93641 148.938 2.53801 144.929 3.26181 140.934C4.69061 132.944 6.68811 124.978 9.34831 117.246C10.6643 113.378 12.1072 109.58 13.536 105.82C14.9648 102.056 16.3607 98.3191 17.6673 94.5591L18.6073 91.8002C18.894 90.8743 19.1384 89.9672 19.4063 89.0225C19.9327 87.1143 20.4403 85.2014 20.9056 83.2838C21.8503 79.4533 22.6916 75.6134 23.312 71.7594C23.9418 67.9101 24.3601 64.0514 24.5058 60.2303C24.6468 56.4139 24.4964 52.621 23.8619 49.0067C22.6493 41.7687 19.4721 35.2639 13.9731 31.3253C11.2612 29.3231 8.08871 27.8943 4.70001 26.8838C1.30191 25.878 -2.30769 25.2952 -5.99719 24.9897L-4.84569 16.384L-1.73429 16.76L1.39591 17.2065C3.49211 17.5308 5.58361 17.9773 7.69391 18.5084C8.74201 18.7951 9.80421 19.0771 10.857 19.4249C11.9145 19.7539 12.9532 20.1675 14.0154 20.5623C15.0776 20.9618 16.1633 21.3566 17.2678 21.7843C18.3723 22.212 19.4862 22.682 20.5578 23.2554C20.8257 23.4011 21.1077 23.528 21.3615 23.6925L22.137 24.1813C22.6587 24.5056 23.1475 24.8769 23.6222 25.267C24.5622 26.0566 25.4223 26.9449 26.1649 27.9225C26.9075 28.9001 27.6454 29.8824 28.2564 30.9446C28.8674 32.0021 29.4314 33.0784 29.9014 34.1876C30.832 36.4107 31.4853 38.7043 31.8895 40.9791C32.3078 43.2539 32.4911 45.5193 32.6227 47.7283C32.853 52.1557 32.7355 56.4468 32.3219 60.6533C31.9083 64.8598 31.2832 68.9864 30.4184 73.0378C29.5724 77.0939 28.4961 81.0701 27.3305 84.9993C26.7618 86.9686 26.1555 88.9191 25.5304 90.8649C25.2108 91.8425 24.8865 92.8577 24.534 93.8353L23.4107 96.7352C21.9208 100.519 20.3463 104.265 18.7624 107.968C17.1832 111.672 15.6134 115.347 14.1846 119.041C11.3082 126.425 9.07101 134.016 7.34611 141.789C3.91511 157.346 2.01161 173.326 0.399508 189.302L-1.87059 189.104Z" fill="url(#paint16_linear)"/>
        <path d="M-4.16889 199.012C-4.10779 190.777 -4.02319 182.543 -3.86339 174.304C-3.65189 166.065 -3.36519 157.83 -2.79649 149.573C-2.21839 141.329 -1.32069 133.014 0.629807 124.827C1.60271 120.743 2.80121 116.724 4.08431 112.776C5.36741 108.828 6.70221 104.932 8.01351 101.036L7.94301 101.247L10.7865 90.5265C11.7171 86.9545 12.4691 83.3402 13.0801 79.7212C14.3585 72.502 15.0024 65.1418 14.382 58.0777C14.2081 56.3152 13.9637 54.5809 13.6159 52.8983C13.2587 51.2157 12.8122 49.5801 12.2482 48.0432C11.6795 46.5063 11.0121 45.054 10.2131 43.7474C9.40001 42.4549 8.46941 41.2987 7.39311 40.3775C6.33561 39.4281 5.14651 38.7419 3.99501 38.0416C2.82471 37.3507 1.56511 36.7679 0.188007 36.3355C-2.56149 35.466 -5.66349 35.0289 -8.93469 34.9208L-8.72319 26.2446C-4.78459 26.0378 -0.690892 26.2164 3.47801 27.2645C5.56011 27.7862 7.63751 28.5852 9.63501 29.6474C10.622 30.1973 11.6513 30.7331 12.6289 31.3723C13.6018 32.0115 14.5747 32.7071 15.4207 33.5249C15.8531 33.9291 16.2479 34.3615 16.6286 34.808C16.9999 35.2592 17.3712 35.7151 17.6814 36.2039C18.0057 36.6833 18.3065 37.1815 18.5744 37.6891C18.8611 38.192 19.1008 38.7043 19.3546 39.2166C20.3369 41.2658 21.0701 43.3573 21.6247 45.4441C22.1793 47.5309 22.5459 49.613 22.795 51.6763C23.0347 53.7396 23.1381 55.7794 23.1616 57.7957C23.1851 59.812 23.1193 61.8048 22.9924 63.7788C22.8561 65.7528 22.6446 67.7033 22.3955 69.6397C22.1417 71.5761 21.8456 73.4937 21.4978 75.3925C21.1312 77.2913 20.7317 79.176 20.2946 81.0419C19.4439 84.7831 18.4475 88.4679 17.1832 92.0634C15.9565 95.6683 14.6358 99.2215 13.5595 102.831L13.5125 102.982L13.489 103.047C10.5421 110.755 7.41661 118.322 5.22171 126.044C4.12661 129.912 3.25241 133.842 2.56151 137.837C2.20901 139.829 1.90351 141.841 1.62151 143.857C1.35831 145.878 1.11861 147.904 0.902408 149.935C0.0423079 158.061 -0.549892 166.253 -1.06689 174.454C-1.30189 178.557 -1.51339 182.661 -1.71549 186.768L-2.00689 192.93L-2.25129 199.092L-4.16889 199.012Z" fill="url(#paint17_linear)"/>
        <path d="M-13.6253 206.415C-13.4749 198.189 -13.3104 189.965 -13.0801 181.74C-12.8451 173.51 -12.5631 165.28 -12.0132 157.036C-11.7359 152.914 -11.3834 148.788 -10.8617 144.657C-10.6126 142.593 -10.293 140.53 -9.94994 138.467C-9.58804 136.408 -9.17444 134.354 -8.70914 132.31C-8.22974 130.27 -7.70334 128.244 -7.12994 126.233C-6.55184 124.226 -5.93614 122.238 -5.30164 120.259C-4.02324 116.311 -2.67904 112.415 -1.35364 108.528L-1.41944 108.725C-0.470037 105.148 0.422962 101.558 1.24546 97.962C2.07266 94.3665 2.81996 90.7616 3.43096 87.1426C4.05136 83.5283 4.54956 79.9046 4.83626 76.2903C4.95846 74.4808 5.04776 72.676 5.06186 70.8806C5.05716 69.0852 4.99606 67.3039 4.85976 65.5414C4.72346 63.7836 4.51666 62.0493 4.20646 60.362C3.87746 58.6794 3.45916 57.0438 2.92806 55.4928C2.38756 53.9512 1.74366 52.4895 0.977562 51.1735C0.178562 49.8763 -0.733238 48.7154 -1.79544 47.7895C-2.83884 46.8401 -4.01384 46.1492 -5.15594 45.4489C-6.31214 44.758 -7.56234 44.1752 -8.93004 43.7428C-11.6607 42.8733 -14.758 42.4409 -18.0245 42.3281L-17.813 33.6519C-13.8838 33.6472 -9.84654 33.9245 -5.75284 35.029C-3.70834 35.5742 -1.67794 36.392 0.267862 37.4683L1.00106 37.8725C1.25486 37.9994 1.49926 38.1404 1.74366 38.2814C2.24656 38.554 2.74946 38.8313 3.24296 39.1321C4.22526 39.7431 5.22636 40.387 6.09116 41.1813C7.83486 42.7511 9.27306 44.6546 10.2272 46.7226C11.1719 48.7906 11.8487 50.9056 12.361 53.0018C13.3245 57.2083 13.5595 61.3396 13.4843 65.344C13.2775 73.3622 11.9521 80.9762 10.246 88.4163C8.57276 95.8658 6.15696 103.043 4.00436 110.248L3.96206 110.398L3.93386 110.469C1.01986 118.172 -2.02574 125.753 -4.09844 133.489C-6.18994 141.226 -7.30384 149.267 -8.14514 157.389C-8.97704 165.51 -9.55514 173.703 -10.0721 181.895C-10.5421 190.091 -10.9463 198.302 -11.3364 206.513L-13.6253 206.415Z" fill="url(#paint18_linear)"/>
        <path d="M-22.8186 213.812C-22.6682 205.597 -22.5131 197.376 -22.3016 189.156C-22.0854 180.936 -21.8363 172.711 -21.3381 164.476C-21.0843 160.359 -20.7694 156.232 -20.2853 152.101C-20.0597 150.038 -19.7589 147.975 -19.4346 145.911C-19.0962 143.848 -18.7014 141.794 -18.2549 139.745C-17.799 137.7 -17.2867 135.67 -16.7321 133.654C-16.1681 131.642 -15.5665 129.649 -14.9414 127.666C-13.6818 123.713 -12.347 119.812 -11.0216 115.921L-11.0874 116.118C-10.138 112.546 -9.24497 108.96 -8.41777 105.369C-7.58587 101.778 -6.82917 98.1781 -6.20407 94.5685C-4.93507 87.3681 -4.11727 80.0502 -4.64837 72.9908C-4.77057 71.233 -4.95857 69.494 -5.24997 67.8067C-5.56017 66.1194 -5.96437 64.4791 -6.47667 62.9281C-6.99367 61.3771 -7.62347 59.9154 -8.37547 58.59C-9.15567 57.2881 -10.0534 56.1178 -11.1015 55.1919C-11.6091 54.7125 -12.1684 54.3083 -12.7183 53.9229C-13.0003 53.7349 -13.2823 53.5516 -13.569 53.3777C-13.8369 53.185 -14.1377 53.0252 -14.4197 52.8466C-15.5618 52.1557 -16.8026 51.5729 -18.1609 51.1405C-20.8775 50.271 -23.9654 49.8386 -27.2272 49.7305L-27.0157 41.0543C-23.0912 41.0496 -19.0586 41.3269 -14.9649 42.4361C-12.9204 42.986 -10.89 43.8085 -8.94887 44.8989C-8.46477 45.1762 -7.96657 45.4347 -7.47307 45.7261C-6.97017 45.9987 -6.47197 46.2854 -5.97847 46.5909C-5.00087 47.2113 -4.00447 47.8646 -3.14437 48.6683C-1.41007 50.2569 0.00462914 52.1792 0.930529 54.2566C1.84703 56.334 2.50503 58.4537 2.98443 60.5499C3.89623 64.7564 4.09363 68.8783 3.97613 72.8733C3.69883 80.868 2.33113 88.4538 0.601528 95.8704C-1.09517 103.296 -3.52037 110.454 -5.66827 117.645L-5.71057 117.796L-5.73877 117.866C-8.64807 125.556 -11.6467 133.132 -13.6442 140.878C-15.6558 148.623 -16.6851 156.679 -17.4794 164.801C-18.2596 172.927 -18.8048 181.114 -19.3077 189.302C-19.7589 197.494 -20.1537 205.7 -20.5438 213.906L-22.8186 213.812Z" fill="url(#paint19_linear)"/>
    </g>
    <defs>
        <linearGradient id="paint0_linear" x1="42.0199" y1="-12.0979" x2="42.0199" y2="192.474" gradientUnits="userSpaceOnUse">
            <stop stop-color="#C4C5EB"/>
            <stop offset="0.3125" stop-color="#BB99E6"/>
            <stop offset="0.635417" stop-color="#C495DF"/>
            <stop offset="1" stop-color="#BF70E6"/>
        </linearGradient>
        <linearGradient id="paint1_linear" x1="49.9234" y1="-16.1682" x2="49.9234" y2="192.136" gradientUnits="userSpaceOnUse">
            <stop stop-color="#C4C5EB"/>
            <stop offset="0.3125" stop-color="#BB99E6"/>
            <stop offset="0.635417" stop-color="#C495DF"/>
            <stop offset="1" stop-color="#BF70E6"/>
        </linearGradient>
        <linearGradient id="paint2_linear" x1="57.2107" y1="-17.6909" x2="57.2107" y2="191.779" gradientUnits="userSpaceOnUse">
            <stop stop-color="#C4C5EB"/>
            <stop offset="0.3125" stop-color="#BB99E6"/>
            <stop offset="0.635417" stop-color="#C495DF"/>
            <stop offset="1" stop-color="#BF70E6"/>
        </linearGradient>
        <linearGradient id="paint3_linear" x1="63.8742" y1="-18.96" x2="63.8742" y2="193.142" gradientUnits="userSpaceOnUse">
            <stop stop-color="#C4C5EB"/>
            <stop offset="0.3125" stop-color="#BB99E6"/>
            <stop offset="0.635417" stop-color="#C495DF"/>
            <stop offset="1" stop-color="#BF70E6"/>
        </linearGradient>
        <linearGradient id="paint4_linear" x1="74.3115" y1="-16.7275" x2="74.3115" y2="194.744" gradientUnits="userSpaceOnUse">
            <stop stop-color="#C4C5EB"/>
            <stop offset="0.3125" stop-color="#BB99E6"/>
            <stop offset="0.635417" stop-color="#C495DF"/>
            <stop offset="1" stop-color="#BF70E6"/>
        </linearGradient>
        <linearGradient id="paint5_linear" x1="80.122" y1="-16.9954" x2="80.122" y2="194.5" gradientUnits="userSpaceOnUse">
            <stop stop-color="#C4C5EB"/>
            <stop offset="0.3125" stop-color="#BB99E6"/>
            <stop offset="0.635417" stop-color="#C495DF"/>
            <stop offset="1" stop-color="#BF70E6"/>
        </linearGradient>
        <linearGradient id="paint6_linear" x1="86.6912" y1="-16.0835" x2="86.6912" y2="195.407" gradientUnits="userSpaceOnUse">
            <stop stop-color="#C4C5EB"/>
            <stop offset="0.3125" stop-color="#BB99E6"/>
            <stop offset="0.635417" stop-color="#C495DF"/>
            <stop offset="1" stop-color="#BF70E6"/>
        </linearGradient>
        <linearGradient id="paint7_linear" x1="95.2379" y1="-18.9128" x2="95.2379" y2="192.653" gradientUnits="userSpaceOnUse">
            <stop stop-color="#C4C5EB"/>
            <stop offset="0.3125" stop-color="#BB99E6"/>
            <stop offset="0.635417" stop-color="#C495DF"/>
            <stop offset="1" stop-color="#BF70E6"/>
        </linearGradient>
        <linearGradient id="paint8_linear" x1="102.658" y1="-19.6226" x2="102.658" y2="192.028" gradientUnits="userSpaceOnUse">
            <stop stop-color="#C4C5EB"/>
            <stop offset="0.3125" stop-color="#BB99E6"/>
            <stop offset="0.635417" stop-color="#C495DF"/>
            <stop offset="1" stop-color="#BF70E6"/>
        </linearGradient>
        <linearGradient id="paint9_linear" x1="111.014" y1="-21.2253" x2="111.014" y2="190.552" gradientUnits="userSpaceOnUse">
            <stop stop-color="#C4C5EB"/>
            <stop offset="0.3125" stop-color="#BB99E6"/>
            <stop offset="0.635417" stop-color="#C495DF"/>
            <stop offset="1" stop-color="#BF70E6"/>
        </linearGradient>
        <linearGradient id="paint10_linear" x1="105.997" y1="91.7676" x2="105.997" y2="189.363" gradientUnits="userSpaceOnUse">
            <stop stop-color="#C4C5EB"/>
            <stop offset="0.3125" stop-color="#BB99E6"/>
            <stop offset="0.635417" stop-color="#C495DF"/>
            <stop offset="1" stop-color="#BF70E6"/>
        </linearGradient>
        <linearGradient id="paint11_linear" x1="112.889" y1="92.5007" x2="112.889" y2="190.087" gradientUnits="userSpaceOnUse">
            <stop stop-color="#C4C5EB"/>
            <stop offset="0.3125" stop-color="#BB99E6"/>
            <stop offset="0.635417" stop-color="#C495DF"/>
            <stop offset="1" stop-color="#BF70E6"/>
        </linearGradient>
        <linearGradient id="paint12_linear" x1="120.294" y1="92.2043" x2="120.294" y2="189.598" gradientUnits="userSpaceOnUse">
            <stop stop-color="#C4C5EB"/>
            <stop offset="0.3125" stop-color="#BB99E6"/>
            <stop offset="0.635417" stop-color="#C495DF"/>
            <stop offset="1" stop-color="#BF70E6"/>
        </linearGradient>
        <linearGradient id="paint13_linear" x1="35.3866" y1="-12.4363" x2="35.3866" y2="189.307" gradientUnits="userSpaceOnUse">
            <stop stop-color="#C4C5EB"/>
            <stop offset="0.3125" stop-color="#BB99E6"/>
            <stop offset="0.635417" stop-color="#C495DF"/>
            <stop offset="1" stop-color="#BF70E6"/>
        </linearGradient>
        <linearGradient id="paint14_linear" x1="25.4419" y1="-2.06812" x2="25.4419" y2="189.189" gradientUnits="userSpaceOnUse">
            <stop stop-color="#C4C5EB"/>
            <stop offset="0.3125" stop-color="#BB99E6"/>
            <stop offset="0.635417" stop-color="#C495DF"/>
            <stop offset="1" stop-color="#BF70E6"/>
        </linearGradient>
        <linearGradient id="paint15_linear" x1="18.49" y1="6.71143" x2="18.49" y2="189.969" gradientUnits="userSpaceOnUse">
            <stop stop-color="#C4C5EB"/>
            <stop offset="0.3125" stop-color="#BB99E6"/>
            <stop offset="0.635417" stop-color="#C495DF"/>
            <stop offset="1" stop-color="#BF70E6"/>
        </linearGradient>
        <linearGradient id="paint16_linear" x1="13.3709" y1="16.384" x2="13.3709" y2="189.302" gradientUnits="userSpaceOnUse">
            <stop stop-color="#C4C5EB"/>
            <stop offset="0.3125" stop-color="#BB99E6"/>
            <stop offset="0.635417" stop-color="#C495DF"/>
            <stop offset="1" stop-color="#BF70E6"/>
        </linearGradient>
        <linearGradient id="paint17_linear" x1="7.11581" y1="26.1689" x2="7.11581" y2="199.092" gradientUnits="userSpaceOnUse">
            <stop stop-color="#C4C5EB"/>
            <stop offset="0.3125" stop-color="#BB99E6"/>
            <stop offset="0.635417" stop-color="#C495DF"/>
            <stop offset="1" stop-color="#BF70E6"/>
        </linearGradient>
        <linearGradient id="paint18_linear" x1="-2.26363" y1="33.6519" x2="-2.26363" y2="206.513" gradientUnits="userSpaceOnUse">
            <stop stop-color="#C4C5EB"/>
            <stop offset="0.3125" stop-color="#BB99E6"/>
            <stop offset="0.635417" stop-color="#C495DF"/>
            <stop offset="1" stop-color="#BF70E6"/>
        </linearGradient>
        <linearGradient id="paint19_linear" x1="-11.6102" y1="41.0542" x2="-11.6102" y2="213.906" gradientUnits="userSpaceOnUse">
            <stop stop-color="#C4C5EB"/>
            <stop offset="0.3125" stop-color="#BB99E6"/>
            <stop offset="0.635417" stop-color="#C495DF"/>
            <stop offset="1" stop-color="#BF70E6"/>
        </linearGradient>
        <clipPath id="clip0">
            <rect width="94" height="188" fill="white"/>
        </clipPath>
    </defs>
</svg>
