<svg width="32" height="32" viewBox="0 0 32 32" fill="none" xmlns="http://www.w3.org/2000/svg">
    <path d="M16 32C24.8366 32 32 24.8366 32 16C32 7.16344 24.8366 0 16 0C7.16344 0 0 7.16344 0 16C0 24.8366 7.16344 32 16 32Z" fill="#201A2D"/>
    <path d="M23.2562 10.0242L22.6562 10.6242C24.0879 12.1898 24.8818 14.2346 24.8818 16.3562C24.8818 18.4777 24.0879 20.5225 22.6562 22.0882L23.2562 22.6882C24.8484 20.9611 25.7324 18.6982 25.7324 16.3492C25.7324 14.0002 24.8484 11.7372 23.2562 10.0102V10.0242ZM10.6382 10.0762C12.2038 8.64448 14.2486 7.85052 16.3702 7.85052C18.4917 7.85052 20.5365 8.64448 22.1022 10.0762L22.7022 9.47617C20.9751 7.88397 18.7122 7 16.3632 7C14.0142 7 11.7512 7.88397 10.0242 9.47617L10.6382 10.0762ZM10.0762 22.0942C8.64617 20.5289 7.85327 18.4853 7.85327 16.3652C7.85327 14.245 8.64617 12.2015 10.0762 10.6362L9.47617 10.0362C7.88397 11.7632 7 14.0262 7 16.3752C7 18.7242 7.88397 20.9871 9.47617 22.7142L10.0762 22.0942ZM22.0942 22.6482C20.5285 24.0799 18.4837 24.8738 16.3622 24.8738C14.2406 24.8738 12.1958 24.0799 10.6302 22.6482L10.0302 23.2482C11.7572 24.8404 14.0202 25.7244 16.3692 25.7244C18.7182 25.7244 20.9811 24.8404 22.7082 23.2482L22.0942 22.6482ZM20.1522 14.3622C20.0322 13.1102 18.9522 12.6902 17.5862 12.5622V10.8382H16.5302V12.5302H15.6862V10.8382H14.6382V12.5742H12.4962V13.7042C12.4962 13.7042 13.2762 13.6902 13.2642 13.7042C13.4048 13.6887 13.546 13.7284 13.6579 13.815C13.7698 13.9015 13.8438 14.0282 13.8642 14.1682V18.9202C13.8612 18.9696 13.8483 19.0178 13.8263 19.0621C13.8043 19.1065 13.7737 19.1459 13.7362 19.1782C13.6994 19.2111 13.6563 19.2362 13.6096 19.252C13.5628 19.2678 13.5134 19.274 13.4642 19.2702C13.4782 19.2822 12.6962 19.2702 12.6962 19.2702L12.4962 20.5322H14.6182V22.2962H15.6742V20.5582H16.5182V22.2882H17.5762V20.5442C19.3602 20.4362 20.6042 19.9962 20.7602 18.3262C20.8862 16.9822 20.2542 16.3822 19.2442 16.1402C19.8582 15.8382 20.2382 15.2782 20.1522 14.3622ZM18.6722 18.1182C18.6722 19.4302 16.4242 19.2802 15.7082 19.2802V16.9522C16.4242 16.9542 18.6722 16.7482 18.6722 18.1182ZM18.1822 14.8382C18.1822 16.0382 16.3062 15.8922 15.7102 15.8922V13.7762C16.3062 13.7762 18.1822 13.5882 18.1822 14.8382Z" fill="white"/>
    <path d="M15.924 26.852C9.89 26.851 5 21.959 5 15.925C5 9.892 9.892 5 15.925 5C21.959 5 26.851 9.89 26.852 15.924C26.8523 17.3592 26.5698 18.7803 26.0207 20.1063C25.4716 21.4322 24.6667 22.637 23.6518 23.6518C22.637 24.6667 21.4322 25.4716 20.1063 26.0207C18.7803 26.5698 17.3592 26.8523 15.924 26.852ZM15.924 5.852C10.365 5.856 5.862 10.365 5.864 15.924C5.866 21.483 10.374 25.988 15.932 25.988C21.491 25.988 25.998 21.483 26 15.924C26.0005 14.6008 25.7402 13.2906 25.234 12.0681C24.7278 10.8456 23.9855 9.73486 23.0497 8.79943C22.1139 7.864 21.0029 7.12221 19.7802 6.61647C18.5575 6.11072 17.2472 5.85095 15.924 5.852Z" fill="white"/>
</svg>
