<svg width="465" height="251" viewBox="0 0 465 251" fill="none" xmlns="http://www.w3.org/2000/svg">
    <path d="M168.659 223.55C219.195 178.497 246.557 159.252 301.201 116.49L314.421 105.769L317.572 93.5411L313.534 79.1693L288.805 74.0662L245.619 111.439C188.37 161.609 170.272 173.646 153.544 190.304C144.072 199.736 139.154 202.32 137.705 204.994C130.46 218.369 129.48 226.241 122.134 239.371L125.516 247.419L156.704 231.157C162.816 228.014 166.787 225.219 168.659 223.55Z" fill="#C5E4F3"/>
    <path d="M160.623 196.251C146.687 207.176 146.751 205.999 141.19 217.027C137.946 223.46 135.868 225.424 132.051 233.053C127.28 242.589 124.119 239.938 126.489 235.464C128.858 230.99 132.227 225.509 136.039 218.399C139.851 211.289 142.003 204.324 148.661 199.14C155.319 193.955 279.916 87.0873 287.952 80.4437C295.989 73.8002 296.771 78.9182 292.878 83.191C288.985 87.4639 273.122 101.235 242.807 126.728C212.492 152.222 174.56 185.326 160.623 196.251Z" fill="white"/>
    <path fill-rule="evenodd" clip-rule="evenodd" d="M236.747 123.54L288.665 79.054C293.293 75.1006 302.397 78.7359 306.383 81.0778C308.255 82.1779 310.548 85.4341 311.962 89.3502L311.876 89.3865C298.604 101.229 290.978 106.49 284.132 111.211C278.752 114.922 273.853 118.301 267.076 124.281C254.777 135.134 243.337 146.588 234.887 155.047C230.671 159.269 227.199 162.745 224.736 165.029C215.961 173.168 200.719 185.149 187.248 195.738C177.293 203.563 168.306 210.628 163.612 214.819C159.93 198.575 145.284 198.417 140.425 200.459C135.565 202.501 136.795 205.428 139.225 204.407C144.813 202.058 160.894 205.631 159.01 220.196C152.478 218.856 144.12 226.037 134.302 234.471C133.775 234.924 133.243 235.381 132.708 235.84C129.555 238.542 131.804 242.532 134.655 240.473C151.603 228.234 157.236 227.388 160.155 226.95C161.202 226.793 161.9 226.688 162.646 226.128C163.48 225.503 163.781 224.705 164.118 223.813C164.485 222.845 164.893 221.764 166.071 220.672C175.015 212.377 184.773 204.319 195.312 195.615C205.379 187.303 216.158 178.401 227.622 168.142C235.13 161.423 240.865 155.49 246.453 149.708C253.458 142.461 260.234 135.451 269.986 127.427C286.015 114.239 301.63 102.448 313.244 97.4229C313.021 100.664 311.741 103.713 308.779 105.852C283.118 124.383 267.178 138.107 245.15 157.12C238.578 161.89 238.259 167.955 245.251 162.146L300.29 116.923C308.21 118.76 315.92 114.659 317.295 104.325L389.077 37.7183C400.608 25.6997 392.837 16.0519 383.893 11.7763C374.95 7.5008 366.457 9.06061 356.267 16.786L350.041 21.6981C347.232 24.4748 344.644 23.8291 341.117 22.9491C339.571 22.5635 337.846 22.133 335.842 21.9258C332.069 21.7903 329.661 22.8627 324.423 26.7247C319.331 30.479 313.862 34.6162 308.69 38.5289C299.145 45.7501 290.61 52.2068 287.319 54.0813C281.552 57.3656 285.282 59.8155 290.496 61.6415C293.848 62.8153 297.064 60.6032 297.311 56.7691C297.501 53.8198 298.6 52.3537 301.259 50.5187C311.897 43.1789 320.189 36.3779 325.014 32.2148C332.148 26.0606 337.072 24.8523 342.102 29.3383C322.527 43.3031 308.988 55.3052 293.775 69.4455C281.802 68.1644 273.123 78.1244 272.207 86.8305L232.575 120.415C227.947 124.368 233.231 126.739 236.747 123.54ZM128.543 243.616C130.164 238.63 125.29 237.235 120.316 241.047C117.937 242.87 116.125 246.826 118.057 248.596C120.632 250.957 126.933 246.588 128.543 243.616Z" fill="#293166"/>
    <path d="M119.771 247.384C94.1287 246.698 64.9973 219.663 85.8686 220.222C106.74 220.78 108.876 253.27 85.1838 246.458C61.492 239.646 30.4507 217.194 55.4964 217.864C80.542 218.535 78.5034 250.913 54.8115 244.101C31.1197 237.289 -10.4223 214.555 18.5242 216.874C47.4708 219.194 49.1425 255.532 17.8394 243.111C-13.4637 230.69 -44.4848 207.465 -23.0775 210.355C-1.67026 213.245 16.1108 240.748 -15.4138 236.815" stroke="#293166" stroke-width="2"/>
</svg>
