<svg width="320" height="58" viewBox="0 0 320 58" fill="none" xmlns="http://www.w3.org/2000/svg">
    <rect x="100.723" y="17.2617" width="110.2" height="40.4817" fill="#1E1C1F"/>
    <rect x="119.036" y="24.1284" width="74.2165" height="26.9878" fill="#312F4A"/>
    <rect x="114.458" y="14.9722" width="12.9317" height="4.49797" rx="2" fill="#1E1C1F"/>
    <rect x="184.498" y="14.9722" width="12.9317" height="4.49797" rx="2" fill="#1E1C1F"/>
    <path d="M179.438 17.2212H210.924V57.7029H123.214L179.438 17.2212Z" fill="white" fill-opacity="0.05"/>
    <path d="M192.932 37.4623C192.932 26.2836 201.995 17.2214 213.173 17.2214H318.075C319.138 17.2214 320 18.0834 320 19.1467V55.7779C320 56.8412 319.138 57.7032 318.075 57.7032H213.173C201.995 57.7032 192.932 48.641 192.932 37.4623Z" fill="url(#paint0_linear)"/>
    <path d="M199.677 37.4622C199.677 30.0097 205.718 23.9683 213.171 23.9683C220.623 23.9683 226.665 30.0097 226.665 37.4622C226.665 44.9147 220.623 50.9561 213.171 50.9561C205.718 50.9561 199.677 44.9147 199.677 37.4622Z" fill="#333333"/>
    <path d="M201.927 37.4625C201.927 31.2521 206.961 26.2175 213.172 26.2175C219.382 26.2175 224.417 31.2521 224.417 37.4625C224.417 43.6729 219.382 48.7074 213.172 48.7074C206.961 48.7074 201.927 43.6729 201.927 37.4625Z" fill="white"/>
    <path d="M296.945 27.2175C296.945 26.6652 297.393 26.2175 297.945 26.2175H310.001C310.554 26.2175 311.001 26.6652 311.001 27.2175V39.8359C311.001 40.3882 310.554 40.8359 310.001 40.8359H297.945C297.393 40.8359 296.945 40.3882 296.945 39.8359V27.2175Z" fill="#999999"/>
    <path d="M288.513 27.2175C288.513 26.6652 288.961 26.2175 289.513 26.2175H293.135C293.688 26.2175 294.135 26.6652 294.135 27.2175V30.84C294.135 31.3923 293.688 31.84 293.135 31.84H289.513C288.961 31.84 288.513 31.3923 288.513 30.84V27.2175Z" fill="#999999"/>
    <path d="M288.513 35.6514C288.513 35.0991 288.961 34.6514 289.513 34.6514H293.135C293.688 34.6514 294.135 35.0991 294.135 35.6514V39.2738C294.135 39.8261 293.688 40.2738 293.135 40.2738H289.513C288.961 40.2738 288.513 39.8261 288.513 39.2738V35.6514Z" fill="#999999"/>
    <path d="M288.513 44.0837C288.513 43.5315 288.961 43.0837 289.513 43.0837H293.135C293.688 43.0837 294.135 43.5315 294.135 44.0837V47.7062C294.135 48.2585 293.688 48.7062 293.135 48.7062H289.513C288.961 48.7062 288.513 48.2585 288.513 47.7062V44.0837Z" fill="#999999"/>
    <path d="M296.945 44.0837C296.945 43.5315 297.393 43.0837 297.945 43.0837H301.568C302.12 43.0837 302.568 43.5315 302.568 44.0837V47.7062C302.568 48.2585 302.12 48.7062 301.568 48.7062H297.945C297.393 48.7062 296.945 48.2585 296.945 47.7062V44.0837Z" fill="#999999"/>
    <path d="M305.38 44.0837C305.38 43.5315 305.828 43.0837 306.38 43.0837H310.003C310.555 43.0837 311.003 43.5315 311.003 44.0837V47.7062C311.003 48.2585 310.555 48.7062 310.003 48.7062H306.38C305.828 48.7062 305.38 48.2585 305.38 47.7062V44.0837Z" fill="#999999"/>
    <path d="M136.586 32.5222H138.051V39.7743H141.836V41.0684H136.586V32.5222Z" fill="#7CF8FA"/>
    <path d="M145.574 41.1783C145.134 41.1783 144.739 41.1132 144.389 40.9829C144.04 40.8446 143.738 40.6492 143.486 40.3969C143.234 40.1365 143.038 39.8231 142.9 39.4568C142.77 39.0906 142.705 38.6755 142.705 38.2115V37.8209C142.705 37.3569 142.77 36.9418 142.9 36.5756C143.038 36.2093 143.234 35.9 143.486 35.6477C143.738 35.3872 144.04 35.1919 144.389 35.0617C144.739 34.9233 145.134 34.8541 145.574 34.8541C146.461 34.8541 147.161 35.1268 147.674 35.6721C148.186 36.2174 148.443 36.9988 148.443 38.0162V38.4923H144.121C144.162 39.0051 144.304 39.3754 144.548 39.6033C144.792 39.8231 145.134 39.933 145.574 39.933C146.005 39.933 146.318 39.8597 146.514 39.7132C146.717 39.5586 146.852 39.3795 146.917 39.176H148.382C148.317 39.4609 148.215 39.7254 148.077 39.9696C147.938 40.2138 147.755 40.4254 147.527 40.6045C147.299 40.7835 147.023 40.926 146.697 41.0318C146.371 41.1294 145.997 41.1783 145.574 41.1783ZM145.574 36.0994C145.159 36.0994 144.833 36.2011 144.597 36.4046C144.361 36.6081 144.21 36.9296 144.145 37.3691H147.002C146.945 36.9133 146.795 36.5878 146.55 36.3924C146.314 36.1971 145.989 36.0994 145.574 36.0994Z" fill="#7CF8FA"/>
    <path d="M152.097 41.1783C151.739 41.1783 151.413 41.1172 151.12 40.9952C150.827 40.8731 150.571 40.6899 150.351 40.4458C150.139 40.1934 149.972 39.8841 149.85 39.5179C149.736 39.1435 149.679 38.708 149.679 38.2115V37.8209C149.679 37.3325 149.74 36.9052 149.863 36.5389C149.985 36.1727 150.152 35.8634 150.363 35.6111C150.583 35.3587 150.839 35.1715 151.132 35.0494C151.425 34.9192 151.747 34.8541 152.097 34.8541C152.854 34.8541 153.448 35.0942 153.879 35.5744V32.5222H155.296V41.0684H154.185L154.05 40.2504C153.839 40.5597 153.566 40.7917 153.232 40.9463C152.899 41.101 152.52 41.1783 152.097 41.1783ZM152.524 39.8597C152.907 39.8597 153.224 39.7295 153.476 39.469C153.729 39.2005 153.863 38.8098 153.879 38.297V37.8209C153.879 37.2837 153.749 36.8767 153.489 36.6C153.236 36.3151 152.915 36.1727 152.524 36.1727C152.093 36.1727 151.759 36.3029 151.523 36.5633C151.287 36.8157 151.169 37.2348 151.169 37.8209V38.2115C151.169 38.7731 151.291 39.1882 151.535 39.4568C151.779 39.7254 152.109 39.8597 152.524 39.8597Z" fill="#7CF8FA"/>
    <path d="M159.31 40.9341C158.952 40.9341 158.626 40.8771 158.333 40.7632C158.04 40.6411 157.784 40.462 157.564 40.226C157.353 39.99 157.186 39.6969 157.064 39.347C156.95 38.9888 156.893 38.5697 156.893 38.0894V37.6988C156.893 37.243 156.954 36.8401 157.076 36.4901C157.198 36.132 157.365 35.8349 157.576 35.5988C157.796 35.3547 158.053 35.1715 158.346 35.0494C158.639 34.9192 158.96 34.8541 159.31 34.8541C160.173 34.8541 160.824 35.1593 161.263 35.7698L161.398 34.964H162.509V41.0684C162.509 41.9149 162.289 42.5497 161.849 42.973C161.41 43.4044 160.726 43.6201 159.798 43.6201C159.367 43.6201 158.993 43.5753 158.675 43.4858C158.366 43.3962 158.105 43.266 157.894 43.0951C157.682 42.9242 157.519 42.7125 157.405 42.4602C157.3 42.216 157.23 41.9352 157.198 41.6178H158.614C158.679 41.9027 158.797 42.1184 158.968 42.2649C159.139 42.4114 159.416 42.4846 159.798 42.4846C160.238 42.4846 160.563 42.3707 160.775 42.1428C160.987 41.923 161.093 41.5649 161.093 41.0684V40.2138C160.873 40.4498 160.612 40.6289 160.311 40.751C160.01 40.8731 159.676 40.9341 159.31 40.9341ZM159.737 39.6156C160.128 39.6156 160.45 39.4813 160.702 39.2127C160.962 38.9441 161.093 38.5697 161.093 38.0894V37.6988C161.093 37.2186 160.962 36.8441 160.702 36.5756C160.45 36.307 160.128 36.1727 159.737 36.1727C159.306 36.1727 158.972 36.2988 158.736 36.5511C158.5 36.7953 158.382 37.1779 158.382 37.6988V38.0894C158.382 38.5941 158.504 38.9766 158.748 39.2371C158.993 39.4894 159.322 39.6156 159.737 39.6156Z" fill="#7CF8FA"/>
    <path d="M166.975 41.1783C166.535 41.1783 166.141 41.1132 165.791 40.9829C165.441 40.8446 165.14 40.6492 164.887 40.3969C164.635 40.1365 164.44 39.8231 164.301 39.4568C164.171 39.0906 164.106 38.6755 164.106 38.2115V37.8209C164.106 37.3569 164.171 36.9418 164.301 36.5756C164.44 36.2093 164.635 35.9 164.887 35.6477C165.14 35.3872 165.441 35.1919 165.791 35.0617C166.141 34.9233 166.535 34.8541 166.975 34.8541C167.862 34.8541 168.562 35.1268 169.075 35.6721C169.588 36.2174 169.844 36.9988 169.844 38.0162V38.4923H165.522C165.563 39.0051 165.705 39.3754 165.949 39.6033C166.194 39.8231 166.535 39.933 166.975 39.933C167.406 39.933 167.72 39.8597 167.915 39.7132C168.119 39.5586 168.253 39.3795 168.318 39.176H169.783C169.718 39.4609 169.616 39.7254 169.478 39.9696C169.339 40.2138 169.156 40.4254 168.928 40.6045C168.701 40.7835 168.424 40.926 168.098 41.0318C167.773 41.1294 167.398 41.1783 166.975 41.1783ZM166.975 36.0994C166.56 36.0994 166.234 36.2011 165.998 36.4046C165.762 36.6081 165.612 36.9296 165.547 37.3691H168.403C168.346 36.9133 168.196 36.5878 167.952 36.3924C167.716 36.1971 167.39 36.0994 166.975 36.0994Z" fill="#7CF8FA"/>
    <path d="M171.447 34.964H172.558L172.668 35.6477C172.879 35.3872 173.14 35.1919 173.449 35.0617C173.767 34.9233 174.117 34.8541 174.499 34.8541H175.11V36.1727H174.499C173.938 36.1727 173.522 36.2947 173.254 36.5389C172.993 36.7831 172.863 37.1127 172.863 37.5278V41.0684H171.447V34.964Z" fill="#7CF8FA"/>
    <path d="M66.938 12.6828L72.1661 7.34142L66.938 2.00005" stroke="#E6AC00" stroke-width="3" stroke-linejoin="round"/>
    <path d="M44.2571 7.34131L72.49 7.34131" stroke="#E6AC00" stroke-width="3"/>
    <path d="M38.1526 32.8921C38.1526 28.4738 41.7343 24.8921 46.1526 24.8921H79.3574V49.3098H46.1526C41.7343 49.3098 38.1526 45.7281 38.1526 41.3098V32.8921Z" fill="#1E1C1F"/>
    <path d="M79.3574 30.9966H88.5141V43.2054H79.3574V30.9966Z" fill="url(#paint1_linear)"/>
    <path d="M0 37.101C0 35.4153 1.36652 34.0488 3.05221 34.0488H38.1526V40.1532H3.05221C1.36653 40.1532 0 38.7867 0 37.101Z" fill="#1E1C1F"/>
    <path d="M25.9438 34.5227C25.9438 33.4181 26.8393 32.5227 27.9438 32.5227H38.1527V41.6793H27.9438C26.8393 41.6793 25.9438 40.7839 25.9438 39.6793V34.5227Z" fill="#1E1C1F"/>
    <defs>
        <linearGradient id="paint0_linear" x1="226.667" y1="22.2817" x2="313.253" y2="57.7032" gradientUnits="userSpaceOnUse">
            <stop stop-color="#CDCCCD"/>
            <stop offset="1" stop-color="#BEBBC1"/>
        </linearGradient>
        <linearGradient id="paint1_linear" x1="79.3574" y1="30.9966" x2="86.401" y2="41.5619" gradientUnits="userSpaceOnUse">
            <stop stop-color="#E6DFE6"/>
            <stop offset="1" stop-color="#BFBCC2"/>
        </linearGradient>
    </defs>
</svg>
