<svg width="24" height="24" viewBox="0 0 24 24" fill="none" xmlns="http://www.w3.org/2000/svg">
    <path fill-rule="evenodd" clip-rule="evenodd" d="M1 0C0.447715 0 0 0.447715 0 1V5.00026C0 5.55254 0.447715 6.00026 1 6.00026H5.00026C5.55254 6.00026 6.00026 5.55254 6.00026 5.00026V1C6.00026 0.447715 5.55254 0 5.00026 0H1ZM9.99932 0C9.44704 0 8.99932 0.447715 8.99932 1V14.6007C8.99932 15.153 9.44704 15.6007 9.99932 15.6007H23C23.5523 15.6007 24 15.153 24 14.6007V1C24 0.447715 23.5523 0 23 0H9.99932ZM0 10.0003C0 9.44803 0.447715 9.00032 1 9.00032H5.00026C5.55254 9.00032 6.00026 9.44803 6.00026 10.0003V14.0006C6.00026 14.5529 5.55254 15.0006 5.00026 15.0006H1C0.447715 15.0006 0 14.5529 0 14.0006V10.0003ZM1 17.9998C0.447715 17.9998 0 18.4476 0 18.9998V23.0001C0 23.5524 0.447715 24.0001 1 24.0001H5.00026C5.55254 24.0001 6.00026 23.5524 6.00026 23.0001V18.9998C6.00026 18.4476 5.55254 17.9998 5.00026 17.9998H1ZM8.99932 18.9998C8.99932 18.4476 9.44704 17.9998 9.99932 17.9998H13.9996C14.5519 17.9998 14.9996 18.4476 14.9996 18.9998V23.0001C14.9996 23.5524 14.5519 24.0001 13.9996 24.0001H9.99932C9.44704 24.0001 8.99932 23.5524 8.99932 23.0001V18.9998ZM19.0006 17.9998C18.4484 17.9998 18.0006 18.4476 18.0006 18.9998V23.0001C18.0006 23.5524 18.4484 24.0001 19.0006 24.0001H23.0009C23.5532 24.0001 24.0009 23.5524 24.0009 23.0001V18.9998C24.0009 18.4476 23.5532 17.9998 23.0009 17.9998H19.0006Z" fill="#96A1A7"/>
</svg>
