<svg width="24" height="24" viewBox="0 0 24 24" fill="none" xmlns="http://www.w3.org/2000/svg">
<path d="M12 24C18.6274 24 24 18.6274 24 12C24 5.37258 18.6274 0 12 0C5.37258 0 0 5.37258 0 12C0 18.6274 5.37258 24 12 24Z" fill="#0088CC"/>
<g clip-path="url(#clip0)">
<path d="M17.8703 9.78459C17.8703 9.27367 17.7698 8.77853 17.5732 8.31065C17.3823 7.86 17.1096 7.45528 16.7623 7.10797C16.415 6.76065 16.0103 6.48796 15.5596 6.29708C15.0932 6.09903 14.5966 6 14.0857 6C13.5747 6 13.0796 6.10046 12.6117 6.29708C12.1611 6.48796 11.7564 6.76065 11.409 7.10797C11.0617 7.45528 10.789 7.86 10.5982 8.31065C10.4001 8.77709 10.3011 9.27367 10.3011 9.78459C10.3011 10.4233 10.4618 11.049 10.7675 11.6058L6.23662 16.1324C6.13185 16.2372 6.09885 16.3965 6.16343 16.5472C6.17635 16.5788 6.19787 16.6075 6.22227 16.6319L7.23695 17.6465C7.26135 17.6709 7.29005 17.691 7.32163 17.7054C7.47232 17.77 7.63163 17.7384 7.7364 17.6322L8.50024 16.8683L9.64658 18.0147C9.67098 18.0391 9.69968 18.0592 9.73124 18.0735C9.88193 18.1381 10.0413 18.1065 10.146 18.0003L11.1463 17C11.1707 16.9756 11.1908 16.9469 11.2052 16.9153C11.2698 16.7646 11.2382 16.6053 11.132 16.5006L10 15.3686L12.263 13.1042C12.8184 13.4099 13.4456 13.5706 14.0842 13.5706C14.5951 13.5706 15.0903 13.4702 15.5581 13.2735C16.0088 13.0827 16.4135 12.81 16.7608 12.4627C17.1081 12.1154 17.3808 11.7106 17.5717 11.26C17.7698 10.7907 17.8703 10.2955 17.8703 9.78459ZM15.4118 11.1121C15.0573 11.4666 14.5851 11.6618 14.0842 11.6618C13.5834 11.6618 13.1112 11.4666 12.7567 11.1121C12.4022 10.7577 12.2056 10.2855 12.2056 9.78459C12.2056 9.28228 12.4008 8.81153 12.7553 8.45704C13.1098 8.10255 13.5819 7.90737 14.0828 7.90737C14.5837 7.90737 15.0559 8.10255 15.4104 8.45704C15.7649 8.81153 15.96 9.28371 15.96 9.78459C15.9629 10.2855 15.7677 10.7577 15.4118 11.1121Z" fill="white"/>
</g>
<defs>
<clipPath id="clip0">
<rect width="12" height="12" fill="white" transform="translate(6 6)"/>
</clipPath>
</defs>
</svg>
