<svg width="40" height="40" viewBox="0 0 40 40" fill="none" xmlns="http://www.w3.org/2000/svg">
    <path d="M20 40C31.0457 40 40 31.0457 40 20C40 8.9543 31.0457 0 20 0C8.9543 0 0 8.9543 0 20C0 31.0457 8.9543 40 20 40Z" fill="#0088CC"/>
    <path fill-rule="evenodd" clip-rule="evenodd" d="M13.546 11.1111C13.3622 11.1111 13.1884 11.1949 13.0737 11.339L7.91037 17.8166C7.71768 18.0583 7.73705 18.4067 7.95507 18.6255L19.5722 30.285C19.8083 30.5223 20.1915 30.5223 20.4279 30.285L32.045 18.6255C32.2632 18.4067 32.2821 18.0583 32.0894 17.8166L26.9266 11.339C26.8116 11.1949 26.6378 11.1111 26.4538 11.1111H20H13.546ZM14.9924 17.5888L13.3411 12.9477L9.64183 17.5888H14.9924ZM18.5253 27.5167L9.8437 18.8032H15.4247L18.5253 27.5167ZM20 28.0502L16.7097 18.8032H20H23.2904L20 28.0502ZM21.4747 27.5167L24.5751 18.8032H30.1566L21.4747 27.5167ZM25.0079 17.5888H30.3582L26.6592 12.9477L25.0079 17.5888ZM21.1082 12.3257H25.5954L23.9928 16.8291L21.1082 12.3257ZM20 12.8414L23.0408 17.5888H20H16.9592L20 12.8414ZM18.8916 12.3257L16.0072 16.8291L14.4046 12.3257H18.8916Z" fill="white"/>
</svg>
