<svg width="32" height="32" viewBox="0 0 32 32" fill="none" xmlns="http://www.w3.org/2000/svg">
    <path d="M16 32C24.8366 32 32 24.8366 32 16C32 7.16344 24.8366 0 16 0C7.16344 0 0 7.16344 0 16C0 24.8366 7.16344 32 16 32Z" fill="#0088CC"/>
    <path fill-rule="evenodd" clip-rule="evenodd" d="M10.8368 8.88892C10.6898 8.88892 10.5507 8.95601 10.459 9.07125L6.32831 14.2533C6.17416 14.4467 6.18966 14.7254 6.36407 14.9005L15.6578 24.228C15.8467 24.4179 16.1532 24.4179 16.3423 24.228L25.636 14.9005C25.8106 14.7254 25.8257 14.4467 25.6715 14.2533L21.5413 9.07125C21.4493 8.95601 21.3103 8.88892 21.1631 8.88892H16H10.8368ZM11.9939 14.0711L10.6729 10.3582L7.71348 14.0711H11.9939ZM14.8203 22.0134L7.87497 15.0426H12.3398L14.8203 22.0134ZM16 22.4402L13.3678 15.0426H16H18.6323L16 22.4402ZM17.1798 22.0134L19.6601 15.0426H24.1253L17.1798 22.0134ZM20.0063 14.0711H24.2866L21.3273 10.3582L20.0063 14.0711ZM16.8866 9.86057H20.4763L19.1943 13.4634L16.8866 9.86057ZM16 10.2731L18.4327 14.0711H16H13.5674L16 10.2731ZM15.1133 9.86057L12.8058 13.4634L11.5237 9.86057H15.1133Z" fill="white"/>
</svg>
