<svg width="16" height="16" viewBox="0 0 16 16" fill="none" xmlns="http://www.w3.org/2000/svg">
    <path fill-rule="evenodd" clip-rule="evenodd" d="M8 15.3333C4 13.5514 2 11.7736 2 10V3.33334C2 2.82161 2.1964 2.70268 2.73995 2.37353C2.90453 2.27387 3.10093 2.15494 3.33333 2.00001C3.4412 1.9281 5.70881 0.666672 8 0.666672C9.99683 0.666672 11.6667 1.33334 12.6667 2.00001C12.8991 2.15494 13.0955 2.27387 13.26 2.37353C13.8036 2.70268 14 2.82161 14 3.33334C14.0131 3.47816 14.0067 6.55808 14.0025 8.5298L14.0025 8.53082C14.0011 9.20274 14 9.74584 14 10C14 11.7778 12 13.5556 8 15.3333ZM12.6667 10C12.6667 9.84646 12.6671 9.58921 12.6679 9.1698L12.6706 7.86762L12.6727 6.73986C12.6751 5.25176 12.6745 3.97455 12.6731 3.57953L12.5815 3.5227L12.5814 3.52266C12.3659 3.38893 12.0849 3.21463 11.9271 3.10941C10.9429 2.45328 9.50679 2.00001 8 2.00001C6.55872 2.00001 4.68576 2.70086 4.07293 3.10941C3.9151 3.21463 3.63413 3.38894 3.41855 3.52267L3.41853 3.52269L3.33333 3.57556V10C3.33333 11.0056 4.81941 12.3792 8.00062 13.868C11.1814 12.3825 12.6667 11.0095 12.6667 10ZM10.1952 5.5286L7.33331 8.39053L5.80471 6.86193L4.8619 7.80474L7.33331 10.2761L11.138 6.47141L10.1952 5.5286Z" fill="#00AC47"/>
</svg>
