<svg width="16" height="16" viewBox="0 0 16 16" fill="none" xmlns="http://www.w3.org/2000/svg">
    <path fill-rule="evenodd" clip-rule="evenodd" d="M8.00034 0.666672C6.60622 0.666672 5.22084 1.13369 4.32541 1.5156L5.33988 2.53007C6.14433 2.2452 7.14785 2 8.00034 2C9.50712 2 10.9432 2.45328 11.9274 3.10941C12.0852 3.21464 12.3662 3.38896 12.5818 3.5227C12.614 3.54267 12.6447 3.56173 12.6734 3.57953C12.6748 3.97455 12.6755 5.25176 12.673 6.73986L12.6709 7.86762L12.6682 9.1698C12.6676 9.47956 12.6672 9.70087 12.6671 9.85728L13.7954 10.9856C13.932 10.6571 14.0003 10.3285 14.0003 10C14.0003 9.74571 14.0015 9.20219 14.0029 8.5298C14.007 6.55808 14.0135 3.47816 14.0003 3.33334C14.0003 2.82161 13.8039 2.70268 13.2604 2.37353C13.0958 2.27387 12.8994 2.15494 12.667 2C11.667 1.33334 9.99717 0.666672 8.00034 0.666672ZM2.04735 2.98979L0.862305 1.80474L1.80511 0.861934L15.1384 14.1953L14.1956 15.1381L12.0771 13.0196C11.0946 13.7908 9.73571 14.5621 8.00038 15.3333C4.00038 13.5514 2.00038 11.7736 2.00038 10V3.33334C2.00038 3.19364 2.01501 3.08321 2.04735 2.98979ZM11.1299 12.0723L3.33373 4.27615V10C3.33373 11.0056 4.81981 12.3792 8.00102 13.868C9.3386 13.2433 10.3763 12.6385 11.1299 12.0723Z" fill="#EB4361"/>
</svg>
