<svg width="36" height="36" viewBox="0 0 36 36" fill="none" xmlns="http://www.w3.org/2000/svg">
    <path d="M18 36C27.9411 36 36 27.9411 36 18C36 8.05887 27.9411 0 18 0C8.05887 0 0 8.05887 0 18C0 27.9411 8.05887 36 18 36Z" fill="#2775C9"/>
    <path d="M17.7188 30.9375C10.4175 30.9375 4.5 25.02 4.5 17.7188C4.5 10.4175 10.4175 4.5 17.7188 4.5C25.02 4.5 30.9375 10.4175 30.9375 17.7188C30.9375 21.2246 29.5448 24.5868 27.0658 27.0658C24.5868 29.5448 21.2246 30.9375 17.7188 30.9375ZM16.9313 12.8138C16.208 12.8496 15.5243 13.1545 15.0143 13.6687C14.5043 14.1828 14.205 14.869 14.175 15.5925C14.175 16.9537 15.0075 17.8425 16.7738 18.2138L18.0113 18.5063C19.215 18.7875 19.71 19.1925 19.71 19.8787C19.71 20.565 18.8438 21.24 17.7188 21.24C17.3191 21.2766 16.9173 21.2001 16.5592 21.019C16.2011 20.838 15.9012 20.5598 15.6937 20.2162C15.6323 20.0859 15.5353 19.9756 15.4139 19.8979C15.2925 19.8203 15.1516 19.7786 15.0075 19.7775H14.3438C14.2927 19.787 14.244 19.8064 14.2005 19.8347C14.157 19.8631 14.1196 19.8997 14.0903 19.9426C14.061 19.9855 14.0405 20.0337 14.03 20.0845C14.0194 20.1354 14.019 20.1878 14.0288 20.2387C14.1904 20.8986 14.5663 21.4863 15.0977 21.9097C15.629 22.3331 16.2857 22.5684 16.965 22.5788V23.5238C16.965 23.7341 17.0486 23.9358 17.1973 24.0846C17.346 24.2333 17.5478 24.3169 17.7581 24.3169C17.9685 24.3169 18.1702 24.2333 18.3189 24.0846C18.4677 23.9358 18.5512 23.7341 18.5512 23.5238V22.5675C19.3194 22.5588 20.0538 22.2505 20.598 21.7084C21.1422 21.1663 21.4533 20.4331 21.465 19.665C21.465 18.2362 20.6438 17.415 18.6975 16.9987L17.5725 16.7513C16.4475 16.47 15.9187 16.0988 15.9187 15.4688C15.9187 14.8387 16.5938 14.1412 17.7188 14.1412C18.0731 14.1042 18.4305 14.1706 18.7479 14.3323C19.0653 14.494 19.3291 14.7441 19.5075 15.0525C19.5798 15.2065 19.6943 15.3368 19.8376 15.4284C19.981 15.52 20.1474 15.5691 20.3175 15.57H20.8463C20.9665 15.5406 21.0703 15.4652 21.1356 15.36C21.2008 15.2548 21.2221 15.1283 21.195 15.0075C21.0426 14.3982 20.7017 13.8527 20.2208 13.4486C19.74 13.0446 19.1439 12.8027 18.5175 12.7575V11.9812C18.5175 11.7709 18.4339 11.5692 18.2852 11.4204C18.1365 11.2717 17.9347 11.1881 17.7244 11.1881C17.514 11.1881 17.3123 11.2717 17.1636 11.4204C17.0148 11.5692 16.9313 11.7709 16.9313 11.9812V12.8138ZM7.8075 17.7188C7.80879 19.7911 8.46109 21.8106 9.67228 23.4922C10.8835 25.1737 12.5923 26.4322 14.5575 27.09H14.715C14.8493 27.09 14.978 27.0367 15.073 26.9417C15.1679 26.8468 15.2212 26.718 15.2212 26.5837V26.3475C15.2216 26.1381 15.1598 25.9333 15.0436 25.759C14.9275 25.5848 14.7622 25.4489 14.5687 25.3687C13.0383 24.751 11.7274 23.69 10.8043 22.3219C9.88113 20.9538 9.38791 19.341 9.38791 17.6906C9.38791 16.0402 9.88113 14.4275 10.8043 13.0594C11.7274 11.6913 13.0383 10.6302 14.5687 10.0125C14.7613 9.93428 14.9262 9.80048 15.0424 9.62817C15.1586 9.45586 15.2209 9.25284 15.2212 9.045V8.78625C15.222 8.71028 15.2044 8.63525 15.1699 8.56753C15.1355 8.49981 15.0852 8.44139 15.0234 8.39723C14.9616 8.35307 14.89 8.32447 14.8148 8.31385C14.7396 8.30324 14.6629 8.31092 14.5913 8.33625C12.618 8.98885 10.9005 10.2466 9.68269 11.9309C8.46491 13.6152 7.80879 15.6403 7.8075 17.7188ZM27.63 17.7188C27.6264 15.6483 26.973 13.6313 25.7619 11.952C24.5509 10.2727 22.8433 9.01591 20.88 8.35875H20.7113C20.571 8.35875 20.4365 8.41446 20.3374 8.51362C20.2382 8.61278 20.1825 8.74727 20.1825 8.8875V9.05625C20.187 9.27323 20.2542 9.48426 20.376 9.66391C20.4978 9.84356 20.6689 9.98416 20.8687 10.0687C22.3957 10.6883 23.7031 11.7494 24.6235 13.1162C25.544 14.483 26.0357 16.0934 26.0357 17.7413C26.0357 19.3891 25.544 20.9995 24.6235 22.3663C23.7031 23.7331 22.3957 24.7942 20.8687 25.4137C20.6727 25.4992 20.5051 25.6388 20.3855 25.8161C20.266 25.9935 20.1995 26.2012 20.1938 26.415V26.6062C20.1947 26.6897 20.2154 26.7716 20.2541 26.8455C20.2928 26.9194 20.3484 26.9831 20.4165 27.0314C20.4845 27.0796 20.5629 27.1111 20.6455 27.1233C20.728 27.1354 20.8122 27.1279 20.8913 27.1012C22.8561 26.441 24.5639 25.1799 25.7731 23.4963C26.9823 21.8127 27.6319 19.7916 27.63 17.7188Z" fill="white"/>
</svg>
