<svg width="40" height="40" viewBox="0 0 40 40" fill="none" xmlns="http://www.w3.org/2000/svg">
    <path d="M20 40C31.0457 40 40 31.0457 40 20C40 8.9543 31.0457 0 20 0C8.9543 0 0 8.9543 0 20C0 31.0457 8.9543 40 20 40Z" fill="#26A17B"/>
    <path fill-rule="evenodd" clip-rule="evenodd" d="M22.0275 21.955V21.9525C21.89 21.9625 21.1812 22.005 19.6 22.005C18.3375 22.005 17.4487 21.9675 17.1362 21.9525V21.9563C12.2762 21.7425 8.64875 20.8962 8.64875 19.8837C8.64875 18.8725 12.2762 18.0262 17.1362 17.8088V21.1137C17.4537 21.1362 18.3637 21.19 19.6212 21.19C21.13 21.19 21.8863 21.1275 22.0275 21.115V17.8113C26.8775 18.0275 30.4963 18.8737 30.4963 19.8837C30.4963 20.8962 26.8775 21.74 22.0275 21.955ZM22.0275 17.4675V14.51H28.795V10H10.3688V14.51H17.1362V17.4662C11.6362 17.7188 7.5 18.8087 7.5 20.1137C7.5 21.4187 11.6362 22.5075 17.1362 22.7612V32.2388H22.0275V22.7587C27.5188 22.5062 31.645 21.4175 31.645 20.1137C31.645 18.81 27.5188 17.7213 22.0275 17.4675Z" fill="white"/>
</svg>
