<svg width="32" height="32" viewBox="0 0 32 32" fill="none" xmlns="http://www.w3.org/2000/svg">
    <path d="M16 32C24.8366 32 32 24.8366 32 16C32 7.16344 24.8366 0 16 0C7.16344 0 0 7.16344 0 16C0 24.8366 7.16344 32 16 32Z" fill="#26A17B"/>
    <path fill-rule="evenodd" clip-rule="evenodd" d="M17.622 17.564V17.562C17.512 17.57 16.945 17.604 15.68 17.604C14.67 17.604 13.959 17.574 13.709 17.562V17.565C9.821 17.394 6.919 16.717 6.919 15.907C6.919 15.098 9.821 14.421 13.709 14.247V16.891C13.963 16.909 14.691 16.952 15.697 16.952C16.904 16.952 17.509 16.902 17.622 16.892V14.249C21.502 14.422 24.397 15.099 24.397 15.907C24.397 16.717 21.502 17.392 17.622 17.564ZM17.622 13.974V11.608H23.036V8H8.295V11.608H13.709V13.973C9.309 14.175 6 15.047 6 16.091C6 17.135 9.309 18.006 13.709 18.209V25.791H17.622V18.207C22.015 18.005 25.316 17.134 25.316 16.091C25.316 15.048 22.015 14.177 17.622 13.974Z" fill="white"/>
</svg>
