<svg width="242" height="248" viewBox="0 0 242 248" fill="none" xmlns="http://www.w3.org/2000/svg">
    <path d="M192.012 222.751L205.688 244.393L204.729 245.114L206.408 248L240 226.839L238.32 223.953L237.361 224.434C233.522 223.232 223.204 224.194 216.246 226.117L214.086 222.751L214.806 221.789L213.846 222.27L211.927 218.663C212.167 218.502 212.647 217.893 212.647 216.739C212.647 215.296 211.687 213.372 210.727 213.372C209.959 213.372 209.768 214.334 209.768 214.815L208.568 213.372L211.207 211.93L209.768 209.044C217.206 197.021 217.925 168.405 214.086 156.862L215.046 156.381L214.086 153.496L213.127 153.736C211.399 146.811 202.809 129.689 190.572 125.12L205.928 95.0616C208.568 90.2522 206.888 88.8094 203.529 88.8094C200.458 88.8094 182.254 89.13 173.536 89.2903C169.457 72.9384 163.939 70.5337 156.981 70.5337C150.982 70.5337 145.224 73.4193 139.705 82.3167L126.028 104.44L119.79 99.6305L116.671 89.2903L117.39 88.8094C115.471 69.0909 105.873 54.1818 90.0372 53.2199V49.6129C94.1162 48.651 98.1952 45.044 98.1952 39.2727C98.1952 36.7718 97.2354 24.7644 96.7555 19.0733C96.7555 19.0733 101.314 17.39 101.314 13.3021C101.314 6.32845 92.6765 9.45455 92.6765 7.04985C92.6765 6.56891 93.8762 6.16813 93.6363 6.08798C91.4768 5.36657 90.757 2 86.1982 2C82.3591 2 81.3993 5.1261 79.9597 5.1261C79.3838 5.1261 78.2801 4.40469 76.6005 4.40469C73.4813 4.40469 70.1221 6.08798 70.1221 7.77126C70.1221 8.49267 67.9627 10.6569 67.9627 11.8592C67.9627 12.5806 68.4426 12.5806 68.4426 13.0616C68.4426 13.783 66.523 15.2258 66.523 17.871C66.523 19.7947 67.2429 20.9971 67.2429 22.9208C67.2429 24.6041 69.1624 26.7683 68.9224 28.6921C65.4673 28.6921 64.1236 29.4135 64.1236 31.8182C64.1236 36.0504 65.5633 37.5894 69.1624 37.5894L69.4023 52.0178C59.5648 53.2199 47.8077 55.1437 46.128 70.2934C6.77786 80.1527 0.779346 129.689 0.0594696 150.129C-0.536425 167.049 3.49862 190.849 5.33816 200.628C7.25768 212.555 14.216 218.903 23.5736 218.903H185.054L189.133 224.434L192.012 222.751Z" fill="white"/>
    <path d="M108.553 216.739C120.646 216.739 164.939 217.701 185.574 218.182L148.143 164.557H127.748C136.386 173.935 145.744 196.059 145.744 205.437C145.744 206.158 145.024 206.158 145.024 205.437C141.905 183.314 122.229 158.065 107.833 147.484C93.4366 136.903 82.3993 133.537 78.5603 133.537C75.489 133.537 68.6427 133.697 65.6035 133.777C58.4053 133.777 50.9671 129.689 48.8076 121.754C38.9701 127.525 34.8911 135.46 30.8121 142.674C30.5722 139.067 39.9298 125.12 48.5677 119.589C48.4077 119.108 48.0878 117.521 48.0878 115.021C48.0878 112.52 47.9279 102.115 47.8479 97.2258C45.9284 95.0616 37.2905 92.4164 32.9716 92.1759C39.306 91.5988 45.5285 94.1799 47.8479 95.5425V90.7331C43.7689 90.7331 43.289 90.2522 43.5289 89.0498C43.7209 88.088 44.0888 85.4428 44.2488 84.2405C43.289 83.5757 41.1295 82.2123 40.1698 82.0762C41.3215 82.0762 43.5289 82.8778 44.4887 83.2786L47.1281 71.0146C31.5319 73.4193 2.979 93.8592 2.979 153.015C2.979 171.05 6.01825 187.081 7.53787 199.666C9.21746 208.804 12.0967 218.422 24.8136 218.422C34.1713 218.422 93.4366 216.739 108.553 216.739Z" fill="#F7E3DC"/>
    <path d="M192.693 129.613H191.733L193.413 136.827C194.853 134.903 196.052 135.384 196.052 137.548C196.052 139.28 195.093 140.514 194.613 140.915L196.772 147.889C205.794 147.696 213.808 149.572 216.687 150.534C214.768 143.32 206.85 130.094 195.333 123.842L192.693 129.613Z" fill="#F7E3DC"/>
    <path d="M214.528 206.563C220.766 196.463 222.446 167.366 218.127 155.343L191.974 164.24L214.528 206.563Z" fill="#F7E3DC"/>
    <path fill-rule="evenodd" clip-rule="evenodd" d="M207.688 242.393L194.012 220.751L191.133 222.434L187.054 216.903H25.5736C16.216 216.903 9.25768 210.555 7.33816 198.628C5.49862 188.849 1.46358 165.049 2.05947 148.129C2.77935 127.689 8.77786 78.1527 48.128 68.2934C49.8077 53.1437 61.5648 51.2199 71.4023 50.0178L71.1624 35.5894C67.5633 35.5894 66.1236 34.0504 66.1236 29.8182C66.1236 27.4135 67.4673 26.6921 70.9224 26.6921C71.0536 25.6404 70.5394 24.5169 70.0462 23.4393C69.6373 22.5458 69.2429 21.6839 69.2429 20.9208C69.2429 19.9589 69.0629 19.1774 68.8829 18.3959L68.8829 18.3958C68.703 17.6143 68.523 16.8328 68.523 15.871C68.523 14.1333 69.3514 12.9145 69.9198 12.0782C70.2166 11.6415 70.4426 11.3091 70.4426 11.0616C70.4426 10.8454 70.3456 10.7264 70.2388 10.5954C70.1081 10.4349 69.9627 10.2564 69.9627 9.85924C69.9627 9.18171 70.6484 8.19874 71.247 7.34062C71.7107 6.67593 72.1221 6.08615 72.1221 5.77126C72.1221 4.08798 75.4813 2.40469 78.6005 2.40469C79.6598 2.40469 80.4901 2.69166 81.1033 2.90361C81.4624 3.02771 81.747 3.1261 81.9597 3.1261C82.5065 3.1261 82.984 2.67518 83.5764 2.11585C84.5437 1.20246 85.8172 0 88.1982 0C91.1118 0 92.4573 1.37513 93.6127 2.55599C94.2652 3.22278 94.857 3.82763 95.6363 4.08798C95.7339 4.12059 95.5932 4.20628 95.392 4.32884C95.0986 4.50753 94.6765 4.76459 94.6765 5.04985C94.6765 5.93951 95.8589 6.07214 97.3486 6.23925C99.8857 6.52384 103.314 6.90845 103.314 11.3021C103.314 15.39 98.7555 17.0733 98.7555 17.0733C99.2354 22.7644 100.195 34.7718 100.195 37.2727C100.195 43.044 96.1162 46.651 92.0372 47.6129V51.2199C107.873 52.1818 117.471 67.0909 119.39 86.8094L118.671 87.2903L121.79 97.6305L128.028 102.44L141.705 80.3167C147.224 71.4193 152.982 68.5337 158.981 68.5337C165.939 68.5337 171.457 70.9384 175.536 87.2903C184.254 87.13 202.458 86.8094 205.529 86.8094C208.888 86.8094 210.568 88.2522 207.928 93.0616L192.572 123.12C204.809 127.689 213.399 144.811 215.127 151.736L216.086 151.496L217.046 154.381L216.086 154.862C219.925 166.405 219.206 195.021 211.768 207.044L213.207 209.93L210.568 211.372L211.768 212.815C211.768 212.334 211.959 211.372 212.727 211.372C213.687 211.372 214.647 213.296 214.647 214.739C214.647 215.893 214.167 216.502 213.927 216.663L215.846 220.27L216.806 219.789L216.086 220.751L218.246 224.117C225.204 222.194 235.522 221.232 239.361 222.434L240.32 221.953L242 224.839L208.408 246L206.729 243.114L207.688 242.393ZM91.3556 14.7717C90.1411 14.2155 89.0302 13.7067 87.9589 13.7067C87.022 13.7067 86.1308 14.165 85.2184 14.6342C84.2615 15.1263 83.2812 15.6305 82.2003 15.6305C81.2472 15.6305 80.4213 14.8466 79.515 13.9864C78.4134 12.941 77.1933 11.783 75.482 11.783C75.482 12.2907 75.2814 12.584 75.092 12.861C74.9226 13.1087 74.7622 13.3434 74.7622 13.7067C74.7622 13.9942 74.8626 14.2346 74.9884 14.5359C75.1995 15.0412 75.482 15.7175 75.482 17.0733C75.482 19.452 74.3342 20.8895 73.5524 21.8685C73.1487 22.3741 72.8426 22.7575 72.8426 23.085C72.8426 24.665 72.9282 25.5586 72.9972 26.2783V26.2784C73.0437 26.7636 73.0826 27.1698 73.0826 27.6539C73.0826 28.3753 72.7467 29.8181 71.403 29.8181C71.403 29.8181 72 29 72 27C72 25.9774 71.5528 24.853 71.1283 23.7857C70.8795 23.1602 70.6386 22.5543 70.5 22C70.1319 20.5275 70.3058 19.8681 70.4232 19.4232C70.4652 19.2638 70.5 19.1319 70.5 19C70.5 18.609 70.3472 18.4474 70.161 18.2504C69.8709 17.9436 69.5 17.5512 69.5 16.0733C69.5 13.6466 70.5002 12.5 71.5002 11.5C71.9407 11.0595 71.702 10.9101 71.417 10.7316C71.055 10.5048 70.6181 10.2312 71.403 9.25474C73.3139 7.15157 73.2669 7.01481 73.2126 6.85649C73.1702 6.73288 73.1233 6.59612 74.0002 5.5C76.2438 2.88241 78.7671 3.62079 80.6081 4.15949C81.2286 4.34109 81.7717 4.5 82.2003 4.5C83.0203 4.5 83.9333 3.80213 84.8785 3.07957C85.8931 2.30401 86.9449 1.5 87.9589 1.5C89.5259 1.5 92.6393 3.5 94.0002 4.5C93.5002 4.66667 92.6002 5.3 93.0002 6.5C93.1938 7.08104 94.5879 7.36199 96.2234 7.69157C98.8099 8.21283 102 8.85576 102 11C102 13.8 99.0377 15.5489 97.5565 16.0733C95.1332 16.5019 93.1333 15.5859 91.3556 14.7717ZM186.574 216.182C165.939 215.701 121.646 214.739 109.553 214.739C101.096 214.739 78.8187 215.266 59.1944 215.73L59.1881 215.73L59.1839 215.73L59.1803 215.73L59.1781 215.731H59.1773H59.1772L59.176 215.731H59.1756C43.7317 216.096 29.9341 216.422 25.8136 216.422C13.0967 216.422 10.2175 206.804 8.53787 197.666C8.17651 194.673 7.72921 191.486 7.25728 188.123C5.74465 177.343 3.979 164.761 3.979 151.015C3.979 91.8592 32.5319 71.4194 48.1281 69.0147L45.4887 81.2786C44.5289 80.8778 42.3215 80.0762 41.1698 80.0762C42.1295 80.2123 44.289 81.5757 45.2488 82.2405C45.0888 83.4428 44.7209 86.088 44.5289 87.0499C44.289 88.2522 44.7689 88.7331 48.8479 88.7331V93.5425C46.5285 92.1799 40.306 89.5988 33.9716 90.176C38.2905 90.4164 46.9284 93.0616 48.8479 95.2258C48.9279 100.115 49.0878 110.52 49.0878 113.021C49.0878 115.521 49.4077 117.109 49.5677 117.589C40.9298 123.12 31.5722 137.067 31.8121 140.674C32.0357 140.279 32.2593 139.881 32.4839 139.482L32.4856 139.479C36.3568 132.595 40.5107 125.208 49.8076 119.754C51.9671 127.689 59.4053 131.777 66.6035 131.777C69.6427 131.697 76.489 131.537 79.5603 131.537C83.3993 131.537 94.4366 134.903 108.833 145.484C123.229 156.065 142.905 181.314 146.024 203.437C146.024 204.158 146.744 204.158 146.744 203.437C146.744 194.059 137.386 171.935 128.748 162.557H149.143L186.574 216.182ZM130.428 124.804L128.988 128.17H188.733C194.492 117.028 206.249 94.2159 207.209 92.0997C208.409 89.4546 208.169 88.4927 206.009 88.4927C204.282 88.4927 181.775 88.1721 170.738 88.0118C164.979 88.0118 163.54 89.2141 161.62 93.783L149.623 120.956C148.279 123.842 147.464 124.804 144.105 124.804H130.428ZM187.774 132.739L173.617 136.827C174.417 137.548 176.448 140.001 178.176 144.041C179.904 148.081 184.814 156.946 187.054 160.874L213.447 151.977C211.288 151.335 206.537 150.053 204.809 150.053C205.193 151.015 204.969 151.736 204.809 151.977L203.61 150.053L199.531 149.572C199.371 150.053 199.099 151.159 199.291 151.736C198.811 151.977 198.331 151.015 198.571 149.572H195.212C194.812 150.133 194.012 151.399 194.012 151.977C193.052 151.977 193.772 150.213 194.252 149.331H192.572L191.613 145.965C191.293 146.125 190.605 146.542 190.413 146.927C190.173 147.408 189.933 145.724 191.613 145.243C191.421 144.474 190.733 142.678 190.413 141.877C188.653 142.518 185.086 143.32 184.894 141.396C184.702 139.472 188.493 140.274 190.413 140.915L187.774 132.739ZM190.173 141.396C189.373 141.236 187.677 140.915 187.294 140.915C185.854 140.915 184.894 141.877 187.294 141.877C188.061 141.877 189.533 141.556 190.173 141.396ZM191.612 140.193C191.372 139.713 190.893 138.558 190.893 137.789C190.893 136.827 192.332 135.625 192.332 137.789C192.332 139.232 191.852 140.113 191.612 140.193ZM189.693 129.613H188.733L190.413 136.827C191.853 134.903 193.052 135.384 193.052 137.548C193.052 139.28 192.093 140.514 191.613 140.915L193.772 147.889C202.794 147.696 210.808 149.572 213.687 150.534C211.768 143.32 203.85 130.094 192.333 123.842L189.693 129.613ZM209.608 212.094L212.007 216.182C210.647 216.182 207.928 216.422 207.928 217.384C207.928 218.586 209.848 218.827 212.727 217.865L214.646 220.751L213.926 222.193L215.126 221.472L217.286 225.32H217.766V227.003L218.725 225.32L222.564 224.358L223.284 226.281V224.358L227.843 223.636L228.803 225.56V223.396C230.322 223.236 234.177 222.963 237.441 223.155C238.017 223.155 237.361 223.636 236.961 223.877L208.648 241.912L194.971 220.27L209.608 212.094ZM212.487 217.144C212.167 216.983 211.239 216.711 210.088 216.903C208.648 217.144 207.928 218.587 212.487 217.144ZM213.687 216.422C214.087 215.781 214.357 214.4 213.687 213.056C212.727 211.132 211.288 212.334 213.687 216.422ZM215.127 155.343C219.446 167.366 217.766 196.463 211.528 206.563L188.974 164.24L215.127 155.343ZM124.909 107.49L122.27 98.8329L127.309 103.642L124.909 107.49ZM180.575 102.921C182.254 102.921 182.974 104.325 182.974 105.085C182.974 106.287 181.775 107.971 179.375 107.971C178.575 107.891 177.072 107.346 177.456 105.807C177.936 103.883 179.375 102.921 180.575 102.921ZM49.8076 65.8886C47.8881 75.8921 46.6084 84.1642 46.2085 87.0499H69.7227L69.0028 115.425L111.232 121.196L113.152 119.754L109.073 111.818L105.234 86.088L116.991 84.8856C116.799 80.461 113.152 53.8651 92.0371 51.9413C91.7172 54.7468 88.1981 60.3578 81.7197 60.3578C74.2335 60.3578 71.7222 53.9453 71.4022 50.739C63.2443 51.7009 52.207 53.3842 49.8076 65.8886ZM210.088 231.091C210.883 231.091 211.527 230.445 211.527 229.648C211.527 228.851 210.883 228.205 210.088 228.205C209.292 228.205 208.648 228.851 208.648 229.648C208.648 230.445 209.292 231.091 210.088 231.091ZM191.5 220L211 209L177 146C170 135 165.5 131 148 131H85C96.5 134 114 143 127 160H149L191.5 220ZM123 114L138.5 116L143.5 123C146 123 147.5 122 148.5 120L161 91.0001C163 86.5001 166 85.5001 170 85.5001H173.5C169 71.5 164.819 70.5322 159.5 70.0001C154 69.45 148 72.5001 144 79.5001L123 114Z" fill="#293166"/>
    <g style="mix-blend-mode:darken">
        <path d="M131.921 127.805L130.482 131.168L191.368 131.648C196.641 121.238 207.668 99.457 209.585 95.6133C211.503 91.7695 209.745 90.8086 208.627 90.8086H173.15C167.397 90.8086 164.681 93.3711 164.041 94.6523L149.659 126.844L131.921 127.805Z" fill="#C5E4F3"/>
    </g>
</svg>
